<svg width="100" height="98" viewBox="0 0 100 98" fill="none" xmlns="http://www.w3.org/2000/svg">
<path d="M68.6285 4.4209L45.2752 10.2658L7.08789 32.4578V71.0535L24.4582 81.1455L36.1656 74.3416V87.8641L53.6846 97.9561L91.7623 75.7641L91.8717 37.1686L68.6285 4.4209Z" fill="#C6C5CB"/>
<path d="M24.5293 56.3217L62.7164 34.1299L62.6461 58.9535L24.459 81.1455L24.5293 56.3217Z" fill="#ACABB1"/>
<path d="M7.08789 32.4578L45.2752 10.2658L68.6285 4.4209L30.4414 26.6129L7.08789 32.4578Z" fill="#D8D8DA"/>
<path d="M53.6855 59.3603L91.8727 37.1683L91.7633 75.764L53.6855 97.956V59.3603Z" fill="#C6C5CB"/>
<path d="M30.4414 26.6129L68.6285 4.4209L91.8717 37.1684L53.6846 59.3604L30.4414 26.6129Z" fill="#D8D8DA"/>
<path d="M30.4414 26.6129L53.6846 59.3604V97.9561L36.1656 87.8641V63.0405L24.5285 56.3217L24.4582 81.1455L7.08789 71.0535V32.4578L30.4414 26.6129Z" fill="#D8D8DA"/>
<path d="M70.0584 0.0439453L41.1246 7.29648L0 31.1955L1.37754 34.1996L28.9242 27.2928L57.4854 67.7301L98.61 43.8309L100 42.4246L70.0584 0.0439453Z" fill="#09DF8F"/>
<path d="M0 31.1955L41.1244 7.29648L70.0584 0.0439453L28.9336 23.9428L0 31.1955Z" fill="#067E51"/>
<path d="M58.8766 66.3236L100.001 42.4246L98.6109 43.831L57.4863 67.73L58.8766 66.3236Z" fill="#023A25"/>
<path d="M28.9336 23.9428L70.0584 0.0439453L100 42.4246L58.8756 66.3236L28.9336 23.9428Z" fill="#09DF8F"/>
<path d="M28.9336 23.9427L58.8756 66.3236L57.4854 67.7301L28.9242 27.2927L1.37754 34.1996L0 31.1955L28.9336 23.9427Z" fill="#09B977"/>
</svg>
