<svg width="98" height="93" viewBox="0 0 98 93" fill="none" xmlns="http://www.w3.org/2000/svg">
<path d="M30.6942 0L0 15.418V41.2867L30.6942 56.7008L61.3885 41.2867V15.418L30.6942 0Z" fill="#FFE6C6"/>
<path d="M61.3877 41.2868L30.6934 56.7008V30.8321L61.3877 15.4181V41.2868Z" fill="#FFD2A6"/>
<path d="M0 41.2868L30.6942 56.7008V30.8321L0 15.4181V41.2868Z" fill="#FCBC90"/>
<path d="M4.19608 19.6317L1.48047 22.5274L2.5242 23.0515V25.0192L5.8592 26.6939V24.7264L6.91149 25.2548L4.19608 19.6317Z" fill="#284363"/>
<path d="M30.6131 0.904297L19.3242 6.51517L26.2471 10.0049L37.4178 4.34838L30.6131 0.904297Z" fill="white"/>
<path d="M30.7247 2.26624L32.1957 3.0126L23.9417 7.09987L22.4707 6.35351L30.7247 2.26624Z" fill="#C8CED6"/>
<path d="M32.8301 3.40601L34.3011 4.15237L26.0472 8.23964L24.5762 7.49328L32.8301 3.40601Z" fill="#C8CED6"/>
<g opacity="0.2">
<path opacity="0.2" d="M39.6856 4.51672L9.14453 20.0105L19.3684 25.1447L49.9084 9.6517L39.6856 4.51672Z" fill="white"/>
</g>
<g opacity="0.2">
<path opacity="0.2" d="M46.0088 7.6831L19.4058 21.1419L17.0801 19.9756L43.6833 6.51697L46.0088 7.6831Z" fill="#424242"/>
</g>
<path d="M95.6943 60.03L95.5137 59.9136L95.5139 59.9138C95.502 59.9058 95.4918 59.8965 95.4794 59.8885L85.0442 53.1789L78.947 34.792L74.6525 32.6354L74.3733 32.4951L61.3881 25.9742L30.6937 41.3536V56.7009L0.015625 41.2936V54.2442C0.015625 55.7787 0.956401 57.1968 2.48378 57.9648L30.6939 72.1311L64.9989 89.3585L66.8088 89.4466V89.519L67.3476 89.4727L68.298 89.519L68.6052 89.3648L96.8823 75.1645C96.8826 75.1645 96.8828 75.1643 96.883 75.1642L96.9911 75.1098C97.0615 75.0744 97.1179 75.0272 97.1607 74.9729C97.3806 74.7727 97.5093 74.5048 97.5093 74.2202V63.3726V63.2042V63.1648C97.5093 61.9287 96.836 60.7659 95.6943 60.03ZM95.3364 62.2862C95.337 62.286 95.3374 62.2857 95.3381 62.2853C95.3374 62.2857 95.337 62.286 95.3364 62.2862Z" fill="#09DF8F"/>
<path d="M17.481 53.4834L17.4918 53.4975C19.4193 52.6347 21.7494 53.5308 23.4495 56.0919C25.7934 59.623 26.048 64.9649 24.0181 68.023C23.4848 68.8264 22.8454 69.386 22.152 69.7197L22.1508 69.7333L17.0199 72.3046L12.377 56.0465L17.481 53.4834Z" fill="#212938"/>
<path d="M58.2505 73.8442L58.2613 73.8584C60.1888 72.9956 62.519 73.8916 64.219 76.4528C66.5629 79.984 66.8175 85.3257 64.7877 88.3838C64.2543 89.1874 63.6149 89.7468 62.9216 90.0805L62.9203 90.0941L57.7894 92.6654L53.1465 76.4075L58.2505 73.8442Z" fill="#212938"/>
<path d="M97.1434 74.4382L89.1174 65.4123L69.0243 75.5088C67.6843 76.1823 66.0124 76.099 64.7692 75.2972L54.3718 68.5894L81.9707 54.7233L75.8768 36.3306L48.1562 50.2201L30.6941 41.3535V56.7008L0.015625 41.2937V54.2443C0.015625 55.7788 0.956401 57.1969 2.48378 57.9649L30.6939 72.1312L64.9989 89.3585L68.298 89.5191L96.9911 75.1099C97.2653 74.9722 97.337 74.656 97.1434 74.4382Z" fill="#0AB474"/>
<path d="M85.0467 53.179L78.9495 34.7921L48.1582 50.2201L54.3738 68.5894L85.0467 53.179Z" fill="#098E5C"/>
<path d="M34.3984 45.1194L46.3919 51.1468L51.412 67.1644L34.3984 58.616V45.1194Z" fill="#33AEFF"/>
<path d="M50.1934 51.2827L55.7152 68.0021L83.7614 53.8157L78.2095 37.1044L50.1934 51.2827Z" fill="#33AEFF"/>
<path d="M59.1433 79.0044C61.4872 82.5356 61.7417 87.8773 59.7119 90.9354C57.6821 93.9935 54.1364 93.6101 51.7925 90.0788C49.4486 86.5475 49.194 81.2058 51.2238 78.1477C53.2537 75.0896 56.7994 75.4733 59.1433 79.0044Z" fill="#284363"/>
<path d="M57.4914 81.4943C58.7814 83.4377 58.9215 86.3776 57.8045 88.0605C56.6874 89.7435 54.7359 89.5325 53.446 87.5891C52.1561 85.6457 52.0159 82.7059 53.1332 81.023C54.25 79.3399 56.2015 79.551 57.4914 81.4943Z" fill="#C8CED6"/>
<path d="M56.9897 82.2521C57.9589 83.7123 58.0641 85.9211 57.2248 87.1855C56.3856 88.4501 54.9194 88.2915 53.9502 86.8313C52.981 85.3711 52.8758 83.1623 53.715 81.8979C54.5543 80.6333 56.0205 80.7919 56.9897 82.2521Z" fill="#9FACBC"/>
<path d="M56.7729 82.5768C57.6046 83.8297 57.6948 85.7251 56.9746 86.8105C56.2543 87.8956 54.9961 87.7595 54.1646 86.5066C53.3328 85.2536 53.2426 83.3582 53.9628 82.2729C54.6829 81.1876 55.9411 81.3236 56.7729 82.5768Z" fill="#C8CED6"/>
<path d="M18.3757 58.6437C20.7196 62.1748 20.9742 67.5164 18.9443 70.5745C16.9145 73.6327 13.3688 73.2492 11.0249 69.7179C8.68101 66.1867 8.42645 60.845 10.4563 57.7869C12.4863 54.729 16.0318 55.1126 18.3757 58.6437Z" fill="#284363"/>
<path d="M16.7221 61.1335C18.0121 63.0769 18.1522 66.0168 17.035 67.6997C15.9177 69.3828 13.9664 69.1715 12.6765 67.2281C11.3866 65.2848 11.2464 62.3451 12.3635 60.662C13.4809 58.9791 15.4322 59.1902 16.7221 61.1335Z" fill="#C8CED6"/>
<path d="M16.2182 61.8913C17.1874 63.3513 17.2926 65.56 16.4533 66.8246C15.6141 68.089 14.1479 67.9306 13.1787 66.4704C12.2095 65.0102 12.1043 62.8015 12.9436 61.5371C13.7828 60.2725 15.249 60.4311 16.2182 61.8913Z" fill="#9FACBC"/>
<path d="M16.0035 62.2159C16.8353 63.4689 16.9255 65.3645 16.2053 66.4496C15.485 67.5347 14.2268 67.3987 13.395 66.1457C12.5633 64.8928 12.4731 62.9971 13.1933 61.912C13.9136 60.8269 15.1718 60.963 16.0035 62.2159Z" fill="#C8CED6"/>
<path d="M95.6945 60.03L95.5139 59.9136L95.5141 59.9138C96.4298 60.5357 96.3431 61.7685 95.338 62.2853C95.3376 62.2854 95.3372 62.2858 95.3366 62.2862H95.3364C95.332 62.2885 95.3282 62.2913 95.3236 62.2936L69.2876 75.3763C67.7584 76.1457 66.8161 77.5654 66.8151 79.1021L66.8086 89.519L68.6049 89.3648L96.8821 75.1645C97.2699 74.9696 97.509 74.6098 97.509 74.2201V63.3726V63.2042V63.1648C97.5094 61.9287 96.8362 60.7658 95.6945 60.03Z" fill="#1AAC75"/>
<path d="M71.8994 80.9931L68.7787 82.569C68.512 82.7029 68.3477 82.9505 68.3477 83.2184V83.434C68.3477 83.6998 68.6784 83.866 68.943 83.733L72.064 82.156C72.3306 82.0219 72.4948 81.7746 72.4948 81.5068V81.2925C72.4946 81.0264 72.164 80.8603 71.8994 80.9931Z" fill="#F0C419"/>
<path d="M96.415 68.6725L93.2943 70.2484C93.0276 70.3823 92.8633 70.6299 92.8633 70.8978V71.1134C92.8633 71.3792 93.1941 71.5454 93.4586 71.4124L96.5796 69.8354C96.8463 69.7013 97.0104 69.4539 97.0104 69.186V68.9717C97.0104 68.7058 96.6796 68.5396 96.415 68.6725Z" fill="#F0C419"/>
<g opacity="0.2">
<path opacity="0.2" d="M38.291 47.0764L45.3227 64.1056L51.3702 67.1441L48.8507 59.0496L45.3772 50.6375L38.291 47.0764Z" fill="white"/>
</g>
<g opacity="0.2">
<path opacity="0.2" d="M34.8727 45.3579L34.7685 45.3054L34.3984 45.1196V58.6161L41.9046 62.3877L34.8727 45.3579Z" fill="white"/>
</g>
<path d="M75.1569 75.2116L89.0693 68.2457C90.4545 67.5522 92.1836 68.4217 92.1836 69.8118C92.1836 71.2479 91.3025 72.5748 89.8722 73.2924L75.9577 80.2747C74.5726 80.9698 72.8418 80.1003 72.8418 78.7093V78.6941C72.8418 77.2567 73.7245 75.9288 75.1569 75.2116Z" fill="#212938"/>
<path d="M71.9119 78.1014C71.9119 79.2428 71.114 80.5689 70.1298 81.0632C69.1456 81.5574 68.3477 81.0328 68.3477 79.8912C68.3477 78.7498 69.1456 77.4237 70.1298 76.9294C71.114 76.4352 71.9119 76.9598 71.9119 78.1014Z" fill="white"/>
<path d="M96.2674 65.8887C96.2674 67.0301 95.4695 68.3563 94.4853 68.8505C93.5011 69.3448 92.7031 68.8202 92.7031 67.6786C92.7031 66.537 93.5011 65.211 94.4853 64.7168C95.4695 64.2225 96.2674 64.7471 96.2674 65.8887Z" fill="white"/>
<path d="M97.9996 70.7315V73.6165C97.9996 74.226 97.6258 74.7891 97.0189 75.0939L68.7931 89.3347C67.5878 89.9401 66.102 89.9387 64.8981 89.3309L61.998 87.8671V83.9765L62.2747 83.8265L66.449 85.9309C66.7126 86.0639 67.0377 86.0641 67.3015 85.9315L97.5153 70.6879V70.491L97.9996 70.7315Z" fill="#C8CED6"/>
<g opacity="0.2">
<path opacity="0.2" d="M77.0399 57.2005L81.4617 46.8921L78.2098 37.1044L72.5196 40.0264L62.3887 64.5613L77.0399 57.2005Z" fill="white"/>
</g>
<g opacity="0.2">
<path opacity="0.2" d="M56.2527 67.6439L66.378 43.1228L53.6517 49.5389L51.4102 54.9681L55.6897 67.9268L56.2527 67.6439Z" fill="white"/>
</g>
</svg>
