<svg width="242" height="219" viewBox="0 0 242 219" fill="none" xmlns="http://www.w3.org/2000/svg">
<path d="M89.7409 184.726H0L0 219L242 219V184.726H146.979C145.46 168.605 133.095 156.148 118.36 156.148C103.621 156.148 91.2605 168.605 89.7409 184.726Z" fill="#BDBDBD"/>
<path d="M89.6855 130.004L90.9705 132.622C91.9093 134.53 92.6823 136.386 93.2625 138.147L94.4151 141.604L97.2879 139.724C104.476 134.961 112.671 132.442 120.994 132.442C128.941 132.442 136.817 134.729 143.761 139.066L145.524 140.169L147.381 138.242C147.599 138.015 147.816 137.783 148.055 137.555C148.674 136.978 149.302 136.424 150.018 135.799C150.578 135.301 151.133 134.814 151.666 134.317L154.671 131.594L151.372 129.332C142.186 123.058 131.687 119.749 120.995 119.749C110.862 119.749 100.844 122.774 92.0086 128.499L89.6855 130.004Z" fill="#BDBDBD"/>
<path d="M67.6319 101.189L64.5117 103.66L67.6145 106.165C69.2875 107.519 70.9268 108.896 72.5399 110.308L74.1404 111.705L75.8134 110.421C89.2759 100.143 104.898 94.7117 120.993 94.7117C139.462 94.7117 156.894 101.525 171.398 114.432L173.054 115.899L176.23 113.267C176.87 112.642 177.48 111.979 178.099 111.298C178.522 110.829 178.927 110.379 179.392 109.915L181.684 107.519L179.251 105.304C162.524 90.0677 142.382 82.0093 120.998 82.0093C101.872 82.0139 83.4205 88.647 67.6319 101.189Z" fill="#BDBDBD"/>
<path d="M35.2806 77.3739L32.6855 79.9303L35.4985 82.1606C37.1421 83.467 38.8492 84.7694 40.6035 86.0712L42.3447 87.3829L43.9584 85.8347C65.3766 65.1211 92.7363 53.7106 120.988 53.7106C148.805 53.7106 175.917 64.9126 197.301 85.2668L199.371 87.2414L201.194 84.9733C202.06 83.8841 202.906 82.7716 203.729 81.6783L206.866 77.6063L204.766 75.6084C181.329 53.3134 151.57 41.0315 120.988 41.0315C89.4109 41.0263 58.9741 53.9372 35.2806 77.3739Z" fill="#BDBDBD"/>
<path d="M8.22116 49.1653L6.25781 51.1871L8.01217 53.4406C8.89591 54.5531 9.79225 55.6377 10.6928 56.717L13.9453 60.637L15.99 58.5488C44.6903 28.9905 81.9823 12.7083 120.99 12.7083C157.548 12.7083 193.061 27.2244 221.001 53.5775L223.161 55.6039L224.953 53.1657C225.931 51.8208 226.951 50.4904 227.988 49.1601L230.519 45.893L228.41 43.8853C198.408 15.5862 160.254 1.90735e-05 120.99 1.90735e-05C79.0874 0.000602722 39.0423 17.4623 8.22116 49.1653Z" fill="#BDBDBD"/>
</svg>
