<svg width="328" height="159" viewBox="0 0 328 159" fill="none" xmlns="http://www.w3.org/2000/svg">
<mask id="mask0" mask-type="alpha" maskUnits="userSpaceOnUse" x="0" y="0" width="328" height="159">
<rect x="0.5" y="0.5" width="327" height="158" rx="4.5" fill="#00FFA0" fill-opacity="0.98" stroke="#BDBDBD"/>
</mask>
<g mask="url(#mask0)">
<rect x="-15.5" y="-13.7388" width="364" height="191.224" rx="4.5" fill="#00FFA0" fill-opacity="0.98" stroke="#BDBDBD"/>
<path d="M142.287 72.0969C151.866 129.414 36.7537 166.571 -22 177.985H303.221L303.427 176.289C309.896 123.123 323.175 13.9889 308.011 -10.6118C292.684 -35.4771 239.358 -36.0741 214.611 -33.2645C186.512 -22.0259 132.707 14.7803 142.287 72.0969Z" fill="#33ECA7" fill-opacity="0.98"/>
<path d="M247.287 72.0969C256.866 129.414 141.754 166.571 83 177.985H408.221L408.427 176.289C414.896 123.123 428.175 13.9889 413.011 -10.6118C397.684 -35.4771 344.358 -36.0741 319.611 -33.2645C291.512 -22.0259 237.707 14.7803 247.287 72.0969Z" fill="#09DF8F" fill-opacity="0.98"/>
</g>
</svg>
