<svg width="341" height="319" viewBox="0 0 341 319" fill="none" xmlns="http://www.w3.org/2000/svg">
<path d="M341 23.4971H0V24.2091H341V23.4971Z" fill="#F1F9FF"/>
<path d="M341 71.9167H0V72.6287H341V71.9167Z" fill="#F1F9FF"/>
<path d="M341 120.336H0V121.048H341V120.336Z" fill="#F1F9FF"/>
<path d="M341 167.332H0V168.044H341V167.332Z" fill="#F1F9FF"/>
<path d="M341 215.752H0V216.464H341V215.752Z" fill="#F1F9FF"/>
<path d="M341 264.883H0V265.595H341V264.883Z" fill="#F1F9FF"/>
<path d="M7.51544 7.9375L8.53058 7.85156C8.60577 8.3457 8.77944 8.7181 9.05157 8.96875C9.32729 9.21582 9.65851 9.33936 10.0452 9.33936C10.5107 9.33936 10.9046 9.1639 11.2269 8.81299C11.5491 8.46208 11.7103 7.99658 11.7103 7.4165C11.7103 6.86507 11.5545 6.43001 11.243 6.11133C10.935 5.79264 10.5304 5.6333 10.0291 5.6333C9.71759 5.6333 9.4365 5.70492 9.18585 5.84814C8.9352 5.98779 8.73826 6.17041 8.59503 6.396L7.68732 6.27783L8.45001 2.2334H12.3655V3.15723H9.22345L8.79913 5.27344C9.27179 4.94401 9.76772 4.7793 10.2869 4.7793C10.9744 4.7793 11.5545 5.01742 12.0272 5.49365C12.4998 5.96989 12.7361 6.58219 12.7361 7.33057C12.7361 8.04313 12.5285 8.65902 12.1131 9.17822C11.6082 9.81559 10.9189 10.1343 10.0452 10.1343C9.32908 10.1343 8.74363 9.93376 8.28888 9.53271C7.83771 9.13167 7.5799 8.59993 7.51544 7.9375ZM7.51544 19.1167C7.51544 18.1857 7.61033 17.4373 7.80011 16.8716C7.99347 16.3022 8.27814 15.8636 8.65411 15.5557C9.03367 15.2477 9.50991 15.0938 10.0828 15.0938C10.5054 15.0938 10.876 15.1797 11.1946 15.3516C11.5133 15.5199 11.7765 15.7651 11.9842 16.0874C12.1919 16.4061 12.3548 16.7964 12.473 17.2583C12.5911 17.7166 12.6502 18.3361 12.6502 19.1167C12.6502 20.0405 12.5553 20.7871 12.3655 21.3564C12.1758 21.9222 11.8911 22.3608 11.5115 22.6724C11.1356 22.9803 10.6593 23.1343 10.0828 23.1343C9.32371 23.1343 8.72752 22.8621 8.29425 22.3179C7.77504 21.6626 7.51544 20.5955 7.51544 19.1167ZM8.50909 19.1167C8.50909 20.4093 8.65948 21.2705 8.96027 21.7002C9.26463 22.1263 9.63881 22.3394 10.0828 22.3394C10.5268 22.3394 10.8992 22.1245 11.2 21.6948C11.5044 21.2651 11.6566 20.4058 11.6566 19.1167C11.6566 17.8205 11.5044 16.9593 11.2 16.5332C10.8992 16.1071 10.5233 15.894 10.0721 15.894C9.62807 15.894 9.27358 16.082 9.00861 16.458C8.6756 16.9378 8.50909 17.8241 8.50909 19.1167ZM7.51544 32.1167C7.51544 31.1857 7.61033 30.4373 7.80011 29.8716C7.99347 29.3022 8.27814 28.8636 8.65411 28.5557C9.03367 28.2477 9.50991 28.0938 10.0828 28.0938C10.5054 28.0938 10.876 28.1797 11.1946 28.3516C11.5133 28.5199 11.7765 28.7651 11.9842 29.0874C12.1919 29.4061 12.3548 29.7964 12.473 30.2583C12.5911 30.7166 12.6502 31.3361 12.6502 32.1167C12.6502 33.0405 12.5553 33.7871 12.3655 34.3564C12.1758 34.9222 11.8911 35.3608 11.5115 35.6724C11.1356 35.9803 10.6593 36.1343 10.0828 36.1343C9.32371 36.1343 8.72752 35.8621 8.29425 35.3179C7.77504 34.6626 7.51544 33.5955 7.51544 32.1167ZM8.50909 32.1167C8.50909 33.4093 8.65948 34.2705 8.96027 34.7002C9.26463 35.1263 9.63881 35.3394 10.0828 35.3394C10.5268 35.3394 10.8992 35.1245 11.2 34.6948C11.5044 34.2651 11.6566 33.4058 11.6566 32.1167C11.6566 30.8205 11.5044 29.9593 11.2 29.5332C10.8992 29.1071 10.5233 28.894 10.0721 28.894C9.62807 28.894 9.27358 29.082 9.00861 29.458C8.6756 29.9378 8.50909 30.8241 8.50909 32.1167Z" fill="#5DE6B3"/>
<path d="M10.6146 59.1317V57.2465H7.19855V56.3602L10.7918 51.2577H11.5814V56.3602H12.6448V57.2465H11.5814V59.1317H10.6146ZM10.6146 56.3602V52.8099L8.14923 56.3602H10.6146ZM7.51544 68.2484C7.51544 67.3174 7.61033 66.5691 7.80011 66.0033C7.99347 65.434 8.27814 64.9953 8.65411 64.6874C9.03367 64.3794 9.50991 64.2255 10.0828 64.2255C10.5054 64.2255 10.876 64.3114 11.1946 64.4833C11.5133 64.6516 11.7765 64.8969 11.9842 65.2191C12.1919 65.5378 12.3548 65.9281 12.473 66.39C12.5911 66.8483 12.6502 67.4678 12.6502 68.2484C12.6502 69.1722 12.5553 69.9188 12.3655 70.4882C12.1758 71.0539 11.8911 71.4926 11.5115 71.8041C11.1356 72.112 10.6593 72.266 10.0828 72.266C9.32371 72.266 8.72752 71.9939 8.29425 71.4496C7.77504 70.7943 7.51544 69.7273 7.51544 68.2484ZM8.50909 68.2484C8.50909 69.5411 8.65948 70.4022 8.96027 70.8319C9.26463 71.258 9.63881 71.4711 10.0828 71.4711C10.5268 71.4711 10.8992 71.2562 11.2 70.8265C11.5044 70.3969 11.6566 69.5375 11.6566 68.2484C11.6566 66.9522 11.5044 66.091 11.2 65.6649C10.8992 65.2388 10.5233 65.0258 10.0721 65.0258C9.62807 65.0258 9.27358 65.2137 9.00861 65.5897C8.6756 66.0695 8.50909 66.9558 8.50909 68.2484ZM7.51544 81.2484C7.51544 80.3174 7.61033 79.5691 7.80011 79.0033C7.99347 78.434 8.27814 77.9953 8.65411 77.6874C9.03367 77.3794 9.50991 77.2255 10.0828 77.2255C10.5054 77.2255 10.876 77.3114 11.1946 77.4833C11.5133 77.6516 11.7765 77.8969 11.9842 78.2191C12.1919 78.5378 12.3548 78.9281 12.473 79.39C12.5911 79.8483 12.6502 80.4678 12.6502 81.2484C12.6502 82.1722 12.5553 82.9188 12.3655 83.4882C12.1758 84.0539 11.8911 84.4926 11.5115 84.8041C11.1356 85.112 10.6593 85.266 10.0828 85.266C9.32371 85.266 8.72752 84.9939 8.29425 84.4496C7.77504 83.7943 7.51544 82.7273 7.51544 81.2484ZM8.50909 81.2484C8.50909 82.5411 8.65948 83.4022 8.96027 83.8319C9.26463 84.258 9.63881 84.4711 10.0828 84.4711C10.5268 84.4711 10.8992 84.2562 11.2 83.8265C11.5044 83.3969 11.6566 82.5375 11.6566 81.2484C11.6566 79.9522 11.5044 79.091 11.2 78.6649C10.8992 78.2388 10.5233 78.0258 10.0721 78.0258C9.62807 78.0258 9.27358 78.2137 9.00861 78.5897C8.6756 79.0695 8.50909 79.9558 8.50909 81.2484Z" fill="#5DE6B3"/>
<path d="M7.52081 104.049L8.48761 103.92C8.59861 104.468 8.7866 104.863 9.05157 105.107C9.32013 105.347 9.64598 105.467 10.0291 105.467C10.4839 105.467 10.867 105.309 11.1785 104.994C11.4936 104.679 11.6512 104.288 11.6512 103.823C11.6512 103.379 11.5062 103.014 11.2161 102.727C10.9261 102.437 10.5573 102.292 10.1097 102.292C9.92706 102.292 9.69969 102.328 9.42755 102.4L9.53497 101.551C9.59943 101.558 9.65135 101.562 9.69073 101.562C10.1025 101.562 10.4731 101.454 10.8026 101.24C11.132 101.025 11.2967 100.693 11.2967 100.246C11.2967 99.8914 11.1767 99.5977 10.9368 99.365C10.6969 99.1322 10.3872 99.0159 10.0076 99.0159C9.63165 99.0159 9.31834 99.134 9.06769 99.3704C8.81704 99.6067 8.6559 99.9612 8.58429 100.434L7.61749 100.262C7.73566 99.6139 8.00421 99.1125 8.42316 98.7581C8.8421 98.4 9.3631 98.2209 9.98615 98.2209C10.4158 98.2209 10.8115 98.314 11.1732 98.5002C11.5348 98.6829 11.8105 98.9335 12.0003 99.2522C12.1937 99.5709 12.2903 99.9093 12.2903 100.267C12.2903 100.608 12.199 100.917 12.0164 101.197C11.8338 101.476 11.5635 101.698 11.2054 101.863C11.6709 101.97 12.0325 102.194 12.2903 102.534C12.5482 102.871 12.6771 103.293 12.6771 103.802C12.6771 104.489 12.4264 105.073 11.9251 105.552C11.4238 106.029 10.79 106.267 10.0237 106.267C9.33266 106.267 8.75795 106.061 8.29962 105.649C7.84487 105.237 7.58527 104.704 7.52081 104.049ZM7.51544 115.244C7.51544 114.313 7.61033 113.565 7.80011 112.999C7.99347 112.429 8.27814 111.991 8.65411 111.683C9.03367 111.375 9.50991 111.221 10.0828 111.221C10.5054 111.221 10.876 111.307 11.1946 111.479C11.5133 111.647 11.7765 111.892 11.9842 112.215C12.1919 112.533 12.3548 112.924 12.473 113.385C12.5911 113.844 12.6502 114.463 12.6502 115.244C12.6502 116.168 12.5553 116.914 12.3655 117.484C12.1758 118.049 11.8911 118.488 11.5115 118.8C11.1356 119.108 10.6593 119.261 10.0828 119.261C9.32371 119.261 8.72752 118.989 8.29425 118.445C7.77504 117.79 7.51544 116.723 7.51544 115.244ZM8.50909 115.244C8.50909 116.537 8.65948 117.398 8.96027 117.827C9.26463 118.253 9.63881 118.467 10.0828 118.467C10.5268 118.467 10.8992 118.252 11.2 117.822C11.5044 117.392 11.6566 116.533 11.6566 115.244C11.6566 113.948 11.5044 113.087 11.2 112.66C10.8992 112.234 10.5233 112.021 10.0721 112.021C9.62807 112.021 9.27358 112.209 9.00861 112.585C8.6756 113.065 8.50909 113.951 8.50909 115.244ZM7.51544 128.244C7.51544 127.313 7.61033 126.565 7.80011 125.999C7.99347 125.429 8.27814 124.991 8.65411 124.683C9.03367 124.375 9.50991 124.221 10.0828 124.221C10.5054 124.221 10.876 124.307 11.1946 124.479C11.5133 124.647 11.7765 124.892 11.9842 125.215C12.1919 125.533 12.3548 125.924 12.473 126.385C12.5911 126.844 12.6502 127.463 12.6502 128.244C12.6502 129.168 12.5553 129.914 12.3655 130.484C12.1758 131.049 11.8911 131.488 11.5115 131.8C11.1356 132.108 10.6593 132.261 10.0828 132.261C9.32371 132.261 8.72752 131.989 8.29425 131.445C7.77504 130.79 7.51544 129.723 7.51544 128.244ZM8.50909 128.244C8.50909 129.537 8.65948 130.398 8.96027 130.827C9.26463 131.253 9.63881 131.467 10.0828 131.467C10.5268 131.467 10.8992 131.252 11.2 130.822C11.5044 130.392 11.6566 129.533 11.6566 128.244C11.6566 126.948 11.5044 126.087 11.2 125.66C10.8992 125.234 10.5233 125.021 10.0721 125.021C9.62807 125.021 9.27358 125.209 9.00861 125.585C8.6756 126.065 8.50909 126.951 8.50909 128.244Z" fill="#5DE6B3"/>
<path d="M12.5965 154.33V155.259H7.39191C7.38475 155.026 7.42234 154.802 7.5047 154.588C7.63719 154.233 7.84845 153.884 8.13849 153.54C8.43211 153.196 8.85463 152.799 9.40607 152.348C10.2619 151.646 10.8401 151.091 11.1409 150.683C11.4417 150.271 11.5921 149.882 11.5921 149.517C11.5921 149.134 11.4542 148.812 11.1785 148.55C10.9064 148.285 10.5501 148.153 10.1097 148.153C9.64419 148.153 9.27179 148.293 8.99249 148.572C8.7132 148.851 8.57176 149.238 8.56818 149.732L7.57452 149.63C7.64256 148.889 7.89858 148.325 8.34259 147.938C8.7866 147.548 9.38279 147.353 10.1312 147.353C10.8867 147.353 11.4847 147.562 11.9251 147.981C12.3655 148.4 12.5858 148.919 12.5858 149.539C12.5858 149.854 12.5213 150.164 12.3924 150.468C12.2635 150.772 12.0486 151.093 11.7479 151.429C11.4507 151.766 10.9547 152.228 10.2601 152.815C9.67999 153.302 9.3076 153.633 9.14288 153.809C8.97817 153.981 8.8421 154.154 8.73468 154.33H12.5965ZM7.51544 164.376C7.51544 163.445 7.61033 162.696 7.80011 162.13C7.99347 161.561 8.27814 161.123 8.65411 160.815C9.03367 160.507 9.50991 160.353 10.0828 160.353C10.5054 160.353 10.876 160.439 11.1946 160.61C11.5133 160.779 11.7765 161.024 11.9842 161.346C12.1919 161.665 12.3548 162.055 12.473 162.517C12.5911 162.976 12.6502 163.595 12.6502 164.376C12.6502 165.299 12.5553 166.046 12.3655 166.615C12.1758 167.181 11.8911 167.62 11.5115 167.931C11.1356 168.239 10.6593 168.393 10.0828 168.393C9.32371 168.393 8.72752 168.121 8.29425 167.577C7.77504 166.922 7.51544 165.854 7.51544 164.376ZM8.50909 164.376C8.50909 165.668 8.65948 166.529 8.96027 166.959C9.26463 167.385 9.63881 167.598 10.0828 167.598C10.5268 167.598 10.8992 167.383 11.2 166.954C11.5044 166.524 11.6566 165.665 11.6566 164.376C11.6566 163.079 11.5044 162.218 11.2 161.792C10.8992 161.366 10.5233 161.153 10.0721 161.153C9.62807 161.153 9.27358 161.341 9.00861 161.717C8.6756 162.197 8.50909 163.083 8.50909 164.376ZM7.51544 177.376C7.51544 176.445 7.61033 175.696 7.80011 175.13C7.99347 174.561 8.27814 174.123 8.65411 173.815C9.03367 173.507 9.50991 173.353 10.0828 173.353C10.5054 173.353 10.876 173.439 11.1946 173.61C11.5133 173.779 11.7765 174.024 11.9842 174.346C12.1919 174.665 12.3548 175.055 12.473 175.517C12.5911 175.976 12.6502 176.595 12.6502 177.376C12.6502 178.299 12.5553 179.046 12.3655 179.615C12.1758 180.181 11.8911 180.62 11.5115 180.931C11.1356 181.239 10.6593 181.393 10.0828 181.393C9.32371 181.393 8.72752 181.121 8.29425 180.577C7.77504 179.922 7.51544 178.854 7.51544 177.376ZM8.50909 177.376C8.50909 178.668 8.65948 179.529 8.96027 179.959C9.26463 180.385 9.63881 180.598 10.0828 180.598C10.5268 180.598 10.8992 180.383 11.2 179.954C11.5044 179.524 11.6566 178.665 11.6566 177.376C11.6566 176.079 11.5044 175.218 11.2 174.792C10.8992 174.366 10.5233 174.153 10.0721 174.153C9.62807 174.153 9.27358 174.341 9.00861 174.717C8.6756 175.197 8.50909 176.083 8.50909 177.376Z" fill="#5DE6B3"/>
<path d="M11.157 202.254H10.1902V196.094C9.9575 196.316 9.65135 196.538 9.27179 196.76C8.89581 196.982 8.55743 197.148 8.25665 197.259V196.325C8.79734 196.071 9.27 195.763 9.67462 195.401C10.0792 195.039 10.3657 194.688 10.534 194.348H11.157V202.254ZM7.51544 211.371C7.51544 210.44 7.61033 209.692 7.80011 209.126C7.99347 208.557 8.27814 208.118 8.65411 207.81C9.03367 207.502 9.50991 207.348 10.0828 207.348C10.5054 207.348 10.876 207.434 11.1946 207.606C11.5133 207.774 11.7765 208.02 11.9842 208.342C12.1919 208.661 12.3548 209.051 12.473 209.513C12.5911 209.971 12.6502 210.591 12.6502 211.371C12.6502 212.295 12.5553 213.042 12.3655 213.611C12.1758 214.177 11.8911 214.615 11.5115 214.927C11.1356 215.235 10.6593 215.389 10.0828 215.389C9.32371 215.389 8.72752 215.117 8.29425 214.572C7.77504 213.917 7.51544 212.85 7.51544 211.371ZM8.50909 211.371C8.50909 212.664 8.65948 213.525 8.96027 213.955C9.26463 214.381 9.63881 214.594 10.0828 214.594C10.5268 214.594 10.8992 214.379 11.2 213.949C11.5044 213.52 11.6566 212.66 11.6566 211.371C11.6566 210.075 11.5044 209.214 11.2 208.788C10.8992 208.362 10.5233 208.148 10.0721 208.148C9.62807 208.148 9.27358 208.336 9.00861 208.712C8.6756 209.192 8.50909 210.079 8.50909 211.371ZM7.51544 224.371C7.51544 223.44 7.61033 222.692 7.80011 222.126C7.99347 221.557 8.27814 221.118 8.65411 220.81C9.03367 220.502 9.50991 220.348 10.0828 220.348C10.5054 220.348 10.876 220.434 11.1946 220.606C11.5133 220.774 11.7765 221.02 11.9842 221.342C12.1919 221.661 12.3548 222.051 12.473 222.513C12.5911 222.971 12.6502 223.591 12.6502 224.371C12.6502 225.295 12.5553 226.042 12.3655 226.611C12.1758 227.177 11.8911 227.615 11.5115 227.927C11.1356 228.235 10.6593 228.389 10.0828 228.389C9.32371 228.389 8.72752 228.117 8.29425 227.572C7.77504 226.917 7.51544 225.85 7.51544 224.371ZM8.50909 224.371C8.50909 225.664 8.65948 226.525 8.96027 226.955C9.26463 227.381 9.63881 227.594 10.0828 227.594C10.5268 227.594 10.8992 227.379 11.2 226.949C11.5044 226.52 11.6566 225.66 11.6566 224.371C11.6566 223.075 11.5044 222.214 11.2 221.788C10.8992 221.362 10.5233 221.148 10.0721 221.148C9.62807 221.148 9.27358 221.336 9.00861 221.712C8.6756 222.192 8.50909 223.079 8.50909 224.371Z" fill="#5DE6B3"/>
<path d="M7.47394 246.144C7.47394 245.297 7.5602 244.617 7.73273 244.103C7.90851 243.585 8.1673 243.186 8.50909 242.906C8.85415 242.627 9.28709 242.487 9.80792 242.487C10.192 242.487 10.529 242.565 10.8187 242.721C11.1084 242.874 11.3476 243.097 11.5364 243.39C11.7252 243.68 11.8734 244.034 11.9808 244.454C12.0882 244.871 12.1419 245.434 12.1419 246.144C12.1419 246.984 12.0556 247.662 11.8831 248.18C11.7106 248.694 11.4518 249.093 11.1068 249.376C10.765 249.656 10.332 249.796 9.80792 249.796C9.11782 249.796 8.57583 249.549 8.18195 249.054C7.70994 248.458 7.47394 247.488 7.47394 246.144ZM8.37726 246.144C8.37726 247.319 8.51398 248.102 8.78741 248.492C9.06411 248.88 9.40428 249.073 9.80792 249.073C10.2116 249.073 10.5501 248.878 10.8235 248.488C11.1002 248.097 11.2386 247.316 11.2386 246.144C11.2386 244.965 11.1002 244.183 10.8235 243.795C10.5501 243.408 10.2083 243.214 9.79816 243.214C9.39451 243.214 9.07225 243.385 8.83136 243.727C8.52863 244.163 8.37726 244.969 8.37726 246.144Z" fill="#5DE6B3"/>
<path d="M74.9331 140.275H60.2723V205.783H74.9331V140.275Z" fill="#C5F2E1"/>
<path d="M117.83 163.06H103.712V229.993H117.83V163.06Z" fill="#C5F2E1"/>
<path d="M96.1099 148.107H81.449V200.087H96.1099V148.107Z" fill="#C5F2E1"/>
<path d="M140.092 142.411H125.975V200.087H140.092V142.411Z" fill="#C5F2E1"/>
<path d="M161.812 133.866H147.151V155.94H161.812V133.866Z" fill="#C5F2E1"/>
<path d="M205.795 145.259H191.134V229.993H205.795V145.259Z" fill="#C5F2E1"/>
<path d="M184.075 116.777H169.414V202.223H184.075V116.777Z" fill="#C5F2E1"/>
<path d="M292.674 79.75H278.013V165.196H292.674V79.75Z" fill="#C5F2E1"/>
<path d="M270.954 118.201H256.836V202.935H270.954V118.201Z" fill="#C5F2E1"/>
<path d="M313.307 117.489H298.646V202.223H313.307V117.489Z" fill="#C5F2E1"/>
<path d="M249.234 54.8281H234.573V111.792H249.234V54.8281Z" fill="#C5F2E1"/>
<path d="M226.971 145.259H212.854V202.223H226.971V145.259Z" fill="#C5F2E1"/>
<path d="M74.9331 205.783H60.2723V265.596H74.9331V205.783Z" fill="#09DF8F"/>
<path d="M117.83 229.993H103.712V265.596H117.83V229.993Z" fill="#09DF8F"/>
<path d="M96.1099 200.087H81.449V265.596H96.1099V200.087Z" fill="#09DF8F"/>
<path d="M140.092 200.087H125.974V265.596H140.092V200.087Z" fill="#09DF8F"/>
<path d="M184.075 200.087H169.414V265.596H184.075V200.087Z" fill="#09DF8F"/>
<path d="M226.971 200.087H212.853V265.596H226.971V200.087Z" fill="#09DF8F"/>
<path d="M270.954 200.087H256.836V265.596H270.954V200.087Z" fill="#09DF8F"/>
<path d="M313.307 200.087H298.646V265.596H313.307V200.087Z" fill="#09DF8F"/>
<path d="M161.812 153.804H147.151V265.596H161.812V153.804Z" fill="#09DF8F"/>
<path d="M205.795 227.145H191.134V265.596H205.795V227.145Z" fill="#09DF8F"/>
<path d="M292.674 163.06H278.013V265.596H292.674V163.06Z" fill="#09DF8F"/>
<path d="M249.234 109.656H234.573V265.596H249.234V109.656Z" fill="#09DF8F"/>
<path d="M67.6753 280.096L67.7807 280.865C67.2885 280.886 66.9516 280.978 66.77 281.142C66.5883 281.306 66.4975 281.533 66.4975 281.823C66.4975 282.037 66.5459 282.222 66.6425 282.377C66.7422 282.532 66.8755 282.639 67.0424 282.698C67.2124 282.756 67.4819 282.786 67.851 282.786H72.2895V283.638H67.8994C67.3603 283.638 66.9428 283.572 66.6469 283.441C66.351 283.312 66.1255 283.105 65.9702 282.821C65.8149 282.54 65.7373 282.209 65.7373 281.828C65.7373 281.262 65.8999 280.829 66.2251 280.527C66.5503 280.228 67.0337 280.085 67.6753 280.096ZM65.8471 284.324L72.2895 286.798V287.716L65.8471 290.353V289.382L67.7983 288.63V285.937L65.8471 285.229V284.324ZM68.4926 286.183V288.367L70.2768 287.694C70.8188 287.489 71.2641 287.337 71.6128 287.237C71.1997 287.155 70.7895 287.04 70.3823 286.89L68.4926 286.183ZM65.8471 291.026H72.2895V291.9L67.2314 295.284H72.2895V296.101H65.8471V295.227L70.9096 291.843H65.8471V291.026ZM72.2895 301.766V302.618H68.5674C67.9199 302.618 67.4057 302.545 67.0249 302.399C66.644 302.252 66.3335 301.987 66.0932 301.603C65.8559 301.222 65.7373 300.721 65.7373 300.1C65.7373 299.497 65.8413 299.003 66.0493 298.619C66.2573 298.235 66.5576 297.962 66.9502 297.797C67.3457 297.633 67.8847 297.551 68.5674 297.551H72.2895V298.404H68.5717C68.0122 298.404 67.5991 298.455 67.3325 298.558C67.0688 298.663 66.8652 298.842 66.7216 299.094C66.5781 299.349 66.5063 299.659 66.5063 300.026C66.5063 300.652 66.6484 301.099 66.9326 301.366C67.2168 301.632 67.7632 301.766 68.5717 301.766H72.2895ZM65.8471 303.335L72.2895 305.809V306.727L65.8471 309.364V308.393L67.7983 307.641V304.947L65.8471 304.24V303.335ZM68.4926 305.193V307.378L70.2768 306.705C70.8188 306.5 71.2641 306.348 71.6128 306.248C71.1997 306.166 70.7895 306.05 70.3823 305.901L68.4926 305.193ZM55.8471 280.545H62.2895V283.401C62.2895 283.975 62.2309 284.412 62.1137 284.711C61.9995 285.009 61.7959 285.248 61.5029 285.427C61.2099 285.606 60.8862 285.695 60.5317 285.695C60.0747 285.695 59.6894 285.547 59.3759 285.251C59.0625 284.955 58.8633 284.498 58.7783 283.88C58.6699 284.106 58.563 284.277 58.4575 284.394C58.229 284.643 57.9433 284.879 57.6006 285.102L55.8471 286.222V285.15L57.1875 284.297C57.5742 284.048 57.8701 283.843 58.0752 283.682C58.2802 283.521 58.4238 283.376 58.5058 283.247C58.5879 283.121 58.645 282.992 58.6772 282.86C58.6977 282.764 58.708 282.606 58.708 282.386V281.397H55.8471V280.545ZM59.4463 281.397V283.23C59.4463 283.619 59.4858 283.924 59.5649 284.144C59.6469 284.363 59.7758 284.53 59.9516 284.645C60.1303 284.759 60.3237 284.816 60.5317 284.816C60.8364 284.816 61.0869 284.705 61.2832 284.482C61.4795 284.262 61.5776 283.914 61.5776 283.436V281.397H59.4463ZM55.8471 288.683H58.5761L62.2895 286.2V287.237L60.3471 288.507C59.9839 288.742 59.6206 288.96 59.2573 289.162C59.5942 289.356 59.9736 289.59 60.3955 289.865L62.2895 291.113V292.107L58.5761 289.536H55.8471V288.683Z" fill="#5DE6B3"/>
<path d="M107.744 279.155H114.902V280.581L109.833 282.275C109.361 282.432 109.008 282.545 108.774 282.617C109.034 282.698 109.417 282.825 109.921 282.998L114.902 284.712V285.986H107.744V285.073H113.735L107.744 282.993V282.139L113.837 280.068H107.744V279.155ZM107.744 286.728L114.902 289.477V290.498L107.744 293.428V292.349L109.912 291.514V288.52L107.744 287.734V286.728ZM110.683 288.794V291.221L112.665 290.474C113.268 290.246 113.763 290.076 114.15 289.966C113.691 289.875 113.235 289.746 112.783 289.58L110.683 288.794ZM107.744 294.199H114.902V297.373C114.902 298.011 114.837 298.496 114.707 298.828C114.58 299.16 114.353 299.425 114.028 299.624C113.702 299.822 113.343 299.922 112.949 299.922C112.441 299.922 112.013 299.757 111.665 299.429C111.316 299.1 111.095 298.592 111 297.905C110.88 298.156 110.761 298.346 110.644 298.476C110.39 298.753 110.073 299.015 109.692 299.263L107.744 300.508V299.316L109.233 298.369C109.663 298.092 109.991 297.864 110.219 297.685C110.447 297.506 110.607 297.345 110.698 297.202C110.789 297.062 110.852 296.919 110.888 296.772C110.911 296.665 110.922 296.489 110.922 296.245V295.146H107.744V294.199ZM111.743 295.146V297.182C111.743 297.615 111.787 297.954 111.874 298.198C111.966 298.442 112.109 298.628 112.304 298.755C112.503 298.882 112.718 298.945 112.949 298.945C113.287 298.945 113.566 298.821 113.784 298.574C114.002 298.33 114.111 297.943 114.111 297.412V295.146H111.743ZM99.2534 284.292L99.0141 285.239C98.2361 285.041 97.6421 284.682 97.2319 284.165C96.825 283.651 96.6216 283.021 96.6216 282.275C96.6216 281.504 96.7778 280.876 97.0903 280.391C97.4061 279.909 97.8618 279.541 98.4575 279.287C99.0532 279.036 99.6928 278.911 100.376 278.911C101.122 278.911 101.771 279.053 102.325 279.336C102.881 279.622 103.303 280.028 103.589 280.552C103.879 281.079 104.024 281.658 104.024 282.29C104.024 283.006 103.842 283.608 103.477 284.097C103.112 284.585 102.6 284.925 101.939 285.117L101.719 284.184C102.24 284.018 102.619 283.778 102.857 283.462C103.095 283.146 103.213 282.749 103.213 282.27C103.213 281.72 103.082 281.26 102.818 280.889C102.554 280.521 102.199 280.262 101.753 280.112C101.311 279.962 100.853 279.888 100.381 279.888C99.7726 279.888 99.2404 279.975 98.7846 280.151C98.3322 280.33 97.9936 280.607 97.769 280.981C97.5444 281.356 97.4321 281.761 97.4321 282.197C97.4321 282.728 97.5851 283.177 97.8911 283.545C98.1971 283.913 98.6512 284.162 99.2534 284.292ZM96.7436 286.44H103.902V287.388H100.962V291.108H103.902V292.056H96.7436V291.108H100.118V287.388H96.7436V286.44Z" fill="#5DE6B3"/>
<path d="M129.92 278.4L136.363 280.874V281.792L129.92 284.429V283.458L131.872 282.706V280.013L129.92 279.305V278.4ZM132.566 280.259V282.443L134.35 281.77C134.892 281.565 135.337 281.413 135.686 281.313C135.273 281.231 134.863 281.116 134.456 280.966L132.566 280.259ZM129.92 285.11H136.363V287.54C136.363 287.968 136.342 288.295 136.301 288.52C136.249 288.837 136.147 289.102 135.998 289.316C135.852 289.53 135.645 289.701 135.378 289.83C135.112 289.962 134.819 290.028 134.5 290.028C133.952 290.028 133.487 289.853 133.106 289.505C132.729 289.156 132.54 288.526 132.54 287.615V285.963H129.92V285.11ZM133.3 285.963V287.628C133.3 288.179 133.402 288.57 133.607 288.802C133.812 289.033 134.101 289.149 134.473 289.149C134.743 289.149 134.973 289.08 135.163 288.942C135.356 288.807 135.484 288.629 135.545 288.406C135.583 288.263 135.603 287.997 135.603 287.611V285.963H133.3ZM129.92 291.126H136.363V293.983C136.363 294.557 136.304 294.994 136.187 295.292C136.073 295.591 135.869 295.83 135.576 296.009C135.283 296.187 134.959 296.277 134.605 296.277C134.148 296.277 133.763 296.129 133.449 295.833C133.136 295.537 132.937 295.08 132.852 294.462C132.743 294.687 132.636 294.859 132.531 294.976C132.302 295.225 132.017 295.461 131.674 295.683L129.92 296.804V295.732L131.261 294.879C131.647 294.63 131.943 294.425 132.148 294.264C132.354 294.103 132.497 293.958 132.579 293.829C132.661 293.703 132.718 293.574 132.75 293.442C132.771 293.346 132.781 293.187 132.781 292.968V291.979H129.92V291.126ZM133.52 291.979V293.811C133.52 294.201 133.559 294.506 133.638 294.725C133.72 294.945 133.849 295.112 134.025 295.226C134.204 295.341 134.397 295.398 134.605 295.398C134.91 295.398 135.16 295.286 135.356 295.064C135.553 294.844 135.651 294.495 135.651 294.018V291.979H133.52ZM119.92 279.252H126.363V280.105H119.92V279.252ZM119.92 281.577H126.363V282.43H120.681V285.602H119.92V281.577Z" fill="#5DE6B3"/>
<path d="M151.183 279.155H158.341V280.581L153.273 282.275C152.801 282.432 152.448 282.545 152.213 282.617C152.474 282.698 152.856 282.825 153.361 282.998L158.341 284.712V285.986H151.183V285.073H157.174L151.183 282.993V282.139L157.277 280.068H151.183V279.155ZM151.183 286.728L158.341 289.477V290.498L151.183 293.428V292.349L153.351 291.514V288.52L151.183 287.734V286.728ZM154.123 288.794V291.221L156.105 290.474C156.707 290.246 157.202 290.076 157.589 289.966C157.13 289.875 156.675 289.746 156.222 289.58L154.123 288.794ZM140.183 281.201H143.215L147.341 278.442V279.595L145.183 281.006C144.779 281.266 144.376 281.509 143.972 281.733C144.347 281.948 144.768 282.209 145.237 282.515L147.341 283.901V285.005L143.215 282.148H140.183V281.201Z" fill="#5DE6B3"/>
<path d="M176.817 278.672L176.922 279.441C176.43 279.462 176.093 279.554 175.912 279.718C175.73 279.882 175.639 280.109 175.639 280.399C175.639 280.613 175.688 280.798 175.784 280.953C175.884 281.108 176.017 281.215 176.184 281.274C176.354 281.332 176.624 281.362 176.993 281.362H181.431V282.214H177.041C176.502 282.214 176.085 282.148 175.789 282.016C175.493 281.888 175.267 281.681 175.112 281.397C174.957 281.116 174.879 280.785 174.879 280.404C174.879 279.838 175.042 279.405 175.367 279.103C175.692 278.804 176.175 278.661 176.817 278.672ZM181.431 287.835V288.687H177.709C177.062 288.687 176.547 288.614 176.167 288.468C175.786 288.321 175.475 288.056 175.235 287.672C174.998 287.291 174.879 286.79 174.879 286.169C174.879 285.566 174.983 285.072 175.191 284.688C175.399 284.305 175.699 284.031 176.092 283.867C176.487 283.703 177.026 283.62 177.709 283.62H181.431V284.473H177.713C177.154 284.473 176.741 284.524 176.474 284.627C176.211 284.732 176.007 284.911 175.863 285.163C175.72 285.418 175.648 285.728 175.648 286.095C175.648 286.722 175.79 287.168 176.074 287.435C176.358 287.702 176.905 287.835 177.713 287.835H181.431ZM164.989 279.099H171.431V279.973L166.373 283.357H171.431V284.174H164.989V283.3L170.051 279.916H164.989V279.099ZM164.989 285.629H171.431V290.287H170.671V286.481H168.698V290.045H167.942V286.481H165.749V290.436H164.989V285.629Z" fill="#5DE6B3"/>
<path d="M281.416 280.523H287.858V281.397L282.8 284.781H287.858V285.598H281.416V284.724L286.478 281.34H281.416V280.523ZM284.553 286.776C285.623 286.776 286.459 287.063 287.063 287.637C287.669 288.212 287.972 288.953 287.972 289.861C287.972 290.456 287.83 290.992 287.546 291.469C287.262 291.947 286.865 292.31 286.355 292.559C285.848 292.811 285.273 292.937 284.628 292.937C283.975 292.937 283.39 292.805 282.875 292.542C282.359 292.278 281.968 291.904 281.701 291.421C281.438 290.938 281.306 290.416 281.306 289.857C281.306 289.25 281.452 288.708 281.745 288.231C282.038 287.753 282.438 287.391 282.945 287.145C283.452 286.899 283.988 286.776 284.553 286.776ZM284.54 287.655C283.764 287.655 283.151 287.863 282.703 288.279C282.258 288.698 282.035 289.222 282.035 289.852C282.035 290.494 282.261 291.021 282.712 291.434C283.163 291.85 283.803 292.058 284.632 292.058C285.157 292.058 285.614 291.969 286.003 291.79C286.396 291.614 286.699 291.355 286.913 291.012C287.13 290.672 287.238 290.29 287.238 289.865C287.238 289.262 287.03 288.742 286.614 288.305C286.201 287.872 285.51 287.655 284.54 287.655ZM281.416 295.881L287.858 293.385V294.308L283.178 295.983C282.803 296.117 282.451 296.23 282.123 296.321C282.475 296.421 282.826 296.536 283.178 296.668L287.858 298.408V299.278L281.416 296.756V295.881ZM281.416 300.061H287.858V304.719H287.098V300.913H285.125V304.477H284.369V300.913H282.176V304.868H281.416V300.061ZM281.416 306.02H287.858V307.303L283.296 308.828C282.872 308.968 282.554 309.071 282.343 309.135C282.577 309.209 282.921 309.323 283.376 309.478L287.858 311.021V312.168H281.416V311.346H286.808L281.416 309.474V308.705L286.9 306.841H281.416V306.02ZM271.416 280.496H277.858V282.913C277.858 283.405 277.792 283.799 277.66 284.095C277.531 284.394 277.331 284.627 277.058 284.794C276.789 284.964 276.506 285.049 276.21 285.049C275.935 285.049 275.675 284.974 275.432 284.825C275.189 284.675 274.993 284.45 274.843 284.148C274.729 284.538 274.534 284.837 274.259 285.045C273.983 285.255 273.658 285.361 273.283 285.361C272.982 285.361 272.7 285.297 272.44 285.168C272.182 285.042 271.982 284.885 271.842 284.697C271.701 284.51 271.594 284.274 271.521 283.99C271.451 283.709 271.416 283.363 271.416 282.953V280.496ZM275.151 281.349V282.742C275.151 283.12 275.176 283.391 275.226 283.555C275.29 283.772 275.397 283.934 275.546 284.043C275.696 284.154 275.883 284.21 276.109 284.21C276.323 284.21 276.51 284.158 276.671 284.056C276.836 283.953 276.947 283.807 277.005 283.616C277.067 283.426 277.098 283.099 277.098 282.636V281.349H275.151ZM272.176 281.349V282.953C272.176 283.228 272.186 283.422 272.207 283.533C272.242 283.729 272.3 283.893 272.382 284.025C272.464 284.157 272.583 284.265 272.738 284.35C272.897 284.435 273.078 284.478 273.283 284.478C273.523 284.478 273.732 284.416 273.907 284.293C274.086 284.17 274.211 283.999 274.281 283.779C274.354 283.562 274.391 283.249 274.391 282.839V281.349H272.176ZM271.416 286.552H277.858V291.21H277.098V287.404H275.125V290.968H274.369V287.404H272.176V291.359H271.416V286.552ZM271.416 292.55H277.858V295.407C277.858 295.981 277.799 296.418 277.682 296.716C277.568 297.015 277.364 297.254 277.071 297.433C276.778 297.611 276.455 297.701 276.1 297.701C275.643 297.701 275.258 297.553 274.944 297.257C274.631 296.961 274.432 296.504 274.347 295.886C274.238 296.111 274.131 296.283 274.026 296.4C273.797 296.649 273.512 296.885 273.169 297.108L271.416 298.228V297.156L272.756 296.303C273.143 296.054 273.439 295.849 273.644 295.688C273.849 295.527 273.992 295.382 274.074 295.253C274.156 295.127 274.213 294.998 274.246 294.866C274.266 294.77 274.276 294.611 274.276 294.392V293.403H271.416V292.55ZM275.015 293.403V295.235C275.015 295.625 275.054 295.93 275.133 296.15C275.215 296.369 275.344 296.536 275.52 296.651C275.699 296.765 275.892 296.822 276.1 296.822C276.405 296.822 276.655 296.711 276.852 296.488C277.048 296.268 277.146 295.92 277.146 295.442V293.403H275.015Z" fill="#5DE6B3"/>
<path d="M303.678 280.531H310.121V282.751C310.121 283.252 310.09 283.634 310.028 283.898C309.943 284.267 309.79 284.582 309.567 284.842C309.28 285.182 308.912 285.436 308.464 285.603C308.019 285.773 307.509 285.858 306.935 285.858C306.445 285.858 306.012 285.8 305.634 285.686C305.256 285.572 304.943 285.425 304.693 285.247C304.447 285.068 304.253 284.872 304.109 284.658C303.968 284.447 303.861 284.191 303.788 283.889C303.715 283.59 303.678 283.246 303.678 282.856V280.531ZM304.439 281.384V282.759C304.439 283.184 304.478 283.517 304.557 283.757C304.636 284 304.748 284.193 304.891 284.337C305.093 284.539 305.364 284.696 305.704 284.807C306.047 284.922 306.462 284.979 306.948 284.979C307.622 284.979 308.139 284.867 308.499 284.645C308.862 284.425 309.106 284.157 309.229 283.84C309.317 283.612 309.36 283.244 309.36 282.737V281.384H304.439ZM303.678 287.053H310.121V291.711H309.36V287.905H307.387V291.469H306.631V287.905H304.439V291.86H303.678V287.053ZM305.937 297.635L305.722 298.487C305.022 298.309 304.487 297.986 304.118 297.521C303.752 297.058 303.568 296.491 303.568 295.82C303.568 295.126 303.709 294.56 303.99 294.124C304.275 293.69 304.685 293.359 305.221 293.13C305.757 292.905 306.333 292.792 306.948 292.792C307.619 292.792 308.203 292.92 308.701 293.174C309.202 293.432 309.582 293.797 309.839 294.269C310.1 294.743 310.231 295.265 310.231 295.833C310.231 296.478 310.067 297.02 309.738 297.459C309.41 297.899 308.949 298.205 308.354 298.378L308.156 297.538C308.625 297.389 308.966 297.172 309.18 296.888C309.394 296.604 309.501 296.246 309.501 295.816C309.501 295.32 309.382 294.906 309.145 294.572C308.908 294.241 308.589 294.008 308.187 293.873C307.789 293.738 307.377 293.671 306.952 293.671C306.404 293.671 305.925 293.75 305.515 293.908C305.108 294.069 304.803 294.318 304.601 294.655C304.399 294.992 304.298 295.357 304.298 295.75C304.298 296.227 304.436 296.631 304.711 296.963C304.986 297.294 305.395 297.518 305.937 297.635ZM303.678 299.56H310.121V304.218H309.36V300.412H307.387V303.976H306.631V300.412H304.439V304.367H303.678V299.56ZM303.678 305.519H310.121V306.802L305.559 308.327C305.134 308.467 304.817 308.57 304.606 308.634C304.84 308.708 305.184 308.822 305.638 308.977L310.121 310.52V311.667H303.678V310.845H309.07L303.678 308.973V308.204L309.163 306.34H303.678V305.519ZM293.678 280.496H300.121V282.913C300.121 283.405 300.055 283.799 299.923 284.095C299.794 284.394 299.593 284.627 299.321 284.794C299.051 284.964 298.769 285.049 298.473 285.049C298.197 285.049 297.938 284.974 297.695 284.825C297.452 284.675 297.255 284.45 297.106 284.148C296.992 284.538 296.797 284.837 296.522 285.045C296.246 285.255 295.921 285.361 295.546 285.361C295.244 285.361 294.963 285.297 294.702 285.168C294.444 285.042 294.245 284.885 294.105 284.697C293.964 284.51 293.857 284.274 293.784 283.99C293.714 283.709 293.678 283.363 293.678 282.953V280.496ZM297.414 281.349V282.742C297.414 283.12 297.439 283.391 297.488 283.555C297.553 283.772 297.66 283.934 297.809 284.043C297.959 284.154 298.146 284.21 298.372 284.21C298.586 284.21 298.773 284.158 298.934 284.056C299.098 283.953 299.21 283.807 299.268 283.616C299.33 283.426 299.36 283.099 299.36 282.636V281.349H297.414ZM294.439 281.349V282.953C294.439 283.228 294.449 283.422 294.469 283.533C294.505 283.729 294.563 283.893 294.645 284.025C294.727 284.157 294.846 284.265 295.001 284.35C295.159 284.435 295.341 284.478 295.546 284.478C295.786 284.478 295.994 284.416 296.17 284.293C296.349 284.17 296.473 283.999 296.544 283.779C296.617 283.562 296.653 283.249 296.653 282.839V281.349H294.439ZM293.678 286.552H300.121V291.21H299.36V287.404H297.387V290.968H296.631V287.404H294.439V291.359H293.678V286.552ZM293.678 292.55H300.121V295.407C300.121 295.981 300.062 296.418 299.945 296.716C299.831 297.015 299.627 297.254 299.334 297.433C299.041 297.611 298.717 297.701 298.363 297.701C297.906 297.701 297.521 297.553 297.207 297.257C296.894 296.961 296.694 296.504 296.609 295.886C296.501 296.111 296.394 296.283 296.289 296.4C296.06 296.649 295.775 296.885 295.432 297.108L293.678 298.228V297.156L295.019 296.303C295.405 296.054 295.701 295.849 295.906 295.688C296.111 295.527 296.255 295.382 296.337 295.253C296.419 295.127 296.476 294.998 296.508 294.866C296.529 294.77 296.539 294.611 296.539 294.392V293.403H293.678V292.55ZM297.277 293.403V295.235C297.277 295.625 297.317 295.93 297.396 296.15C297.478 296.369 297.607 296.536 297.783 296.651C297.962 296.765 298.155 296.822 298.363 296.822C298.668 296.822 298.918 296.711 299.114 296.488C299.311 296.268 299.409 295.92 299.409 295.442V293.403H297.277Z" fill="#5DE6B3"/>
<path d="M195.568 279.413L195.685 280.268C195.138 280.29 194.764 280.393 194.562 280.575C194.36 280.757 194.259 281.01 194.259 281.332C194.259 281.57 194.313 281.775 194.42 281.947C194.531 282.12 194.679 282.239 194.865 282.304C195.054 282.369 195.353 282.401 195.763 282.401H200.695V283.349H195.817C195.218 283.349 194.754 283.275 194.425 283.129C194.097 282.986 193.846 282.756 193.673 282.44C193.501 282.128 193.415 281.76 193.415 281.337C193.415 280.709 193.595 280.227 193.957 279.892C194.318 279.56 194.855 279.4 195.568 279.413ZM200.695 289.594V290.541H196.559C195.84 290.541 195.268 290.46 194.845 290.297C194.422 290.134 194.077 289.84 193.81 289.413C193.546 288.99 193.415 288.433 193.415 287.743C193.415 287.073 193.53 286.524 193.761 286.098C193.992 285.671 194.326 285.367 194.762 285.185C195.202 285.002 195.801 284.911 196.559 284.911H200.695V285.858H196.564C195.942 285.858 195.483 285.915 195.187 286.029C194.894 286.146 194.668 286.345 194.508 286.625C194.349 286.908 194.269 287.253 194.269 287.66C194.269 288.357 194.427 288.853 194.743 289.149C195.058 289.446 195.666 289.594 196.564 289.594H200.695ZM193.537 292.084H200.695V293.031H194.381V296.557H193.537V292.084ZM182.537 281.913H185.569L189.695 279.154V280.307L187.537 281.718C187.133 281.978 186.729 282.221 186.326 282.445C186.7 282.66 187.122 282.921 187.59 283.227L189.695 284.613V285.717L185.569 282.86H182.537V281.913Z" fill="#5DE6B3"/>
<path d="M216.256 279.112L222.699 281.586V282.504L216.256 285.141V284.17L218.208 283.418V280.725L216.256 280.017V279.112ZM218.902 280.971V283.155L220.686 282.482C221.228 282.277 221.673 282.125 222.022 282.025C221.609 281.943 221.199 281.828 220.792 281.678L218.902 280.971ZM222.699 290.05V290.902H218.977C218.329 290.902 217.815 290.829 217.434 290.683C217.053 290.536 216.743 290.271 216.502 289.887C216.265 289.506 216.147 289.005 216.147 288.384C216.147 287.781 216.251 287.287 216.459 286.903C216.667 286.52 216.967 286.246 217.359 286.082C217.755 285.917 218.294 285.835 218.977 285.835H222.699V286.688H218.981C218.421 286.688 218.008 286.739 217.742 286.842C217.478 286.947 217.274 287.126 217.131 287.378C216.987 287.633 216.916 287.943 216.916 288.31C216.916 288.937 217.058 289.383 217.342 289.65C217.626 289.917 218.172 290.05 218.981 290.05H222.699ZM218.783 295.341H219.539L219.543 298.07H217.153C216.819 297.651 216.567 297.219 216.397 296.773C216.23 296.328 216.147 295.871 216.147 295.402C216.147 294.77 216.281 294.194 216.551 293.675C216.823 293.16 217.216 292.77 217.729 292.506C218.241 292.243 218.814 292.111 219.447 292.111C220.074 292.111 220.658 292.241 221.2 292.502C221.745 292.766 222.149 293.144 222.413 293.636C222.677 294.128 222.809 294.695 222.809 295.336C222.809 295.802 222.732 296.223 222.58 296.598C222.431 296.976 222.221 297.271 221.952 297.485C221.682 297.699 221.331 297.862 220.897 297.973L220.686 297.204C221.014 297.107 221.272 296.987 221.46 296.844C221.647 296.7 221.796 296.495 221.908 296.229C222.022 295.962 222.079 295.666 222.079 295.341C222.079 294.951 222.019 294.614 221.899 294.33C221.782 294.046 221.626 293.816 221.433 293.64C221.24 293.467 221.027 293.333 220.796 293.236C220.397 293.072 219.965 292.99 219.5 292.99C218.925 292.99 218.445 293.088 218.058 293.284C217.671 293.483 217.384 293.772 217.197 294.15C217.009 294.528 216.916 294.929 216.916 295.354C216.916 295.723 216.986 296.083 217.126 296.435C217.27 296.787 217.422 297.053 217.584 297.235H218.783V295.341ZM222.699 303.559V304.411H218.977C218.329 304.411 217.815 304.338 217.434 304.191C217.053 304.045 216.743 303.78 216.502 303.396C216.265 303.015 216.147 302.514 216.147 301.893C216.147 301.29 216.251 300.796 216.459 300.412C216.667 300.028 216.967 299.754 217.359 299.59C217.755 299.426 218.294 299.344 218.977 299.344H222.699V300.197H218.981C218.421 300.197 218.008 300.248 217.742 300.351C217.478 300.456 217.274 300.635 217.131 300.887C216.987 301.142 216.916 301.452 216.916 301.818C216.916 302.445 217.058 302.892 217.342 303.159C217.626 303.425 218.172 303.559 218.981 303.559H222.699ZM208.326 279.529L208.397 280.333C208.074 280.372 207.809 280.459 207.601 280.597C207.396 280.738 207.229 280.955 207.1 281.248C206.974 281.541 206.911 281.87 206.911 282.236C206.911 282.562 206.96 282.849 207.056 283.098C207.153 283.347 207.285 283.531 207.452 283.651C207.622 283.774 207.806 283.836 208.005 283.836C208.208 283.836 208.383 283.777 208.533 283.66C208.685 283.543 208.813 283.35 208.915 283.08C208.982 282.907 209.086 282.525 209.227 281.933C209.371 281.341 209.505 280.927 209.631 280.689C209.793 280.382 209.992 280.152 210.229 280C210.469 279.85 210.737 279.775 211.033 279.775C211.358 279.775 211.662 279.868 211.943 280.052C212.227 280.237 212.442 280.506 212.589 280.861C212.735 281.215 212.809 281.609 212.809 282.043C212.809 282.521 212.731 282.941 212.576 283.304C212.423 283.67 212.198 283.952 211.899 284.148C211.6 284.344 211.262 284.45 210.884 284.464L210.822 283.647C211.23 283.603 211.537 283.454 211.745 283.199C211.953 282.947 212.057 282.573 212.057 282.078C212.057 281.562 211.962 281.186 211.772 280.949C211.584 280.714 211.357 280.597 211.09 280.597C210.859 280.597 210.668 280.681 210.519 280.848C210.37 281.012 210.216 281.439 210.058 282.131C209.902 282.825 209.766 283.301 209.649 283.559C209.476 283.934 209.256 284.211 208.99 284.39C208.726 284.568 208.421 284.658 208.076 284.658C207.733 284.658 207.409 284.56 207.105 284.363C206.803 284.167 206.567 283.884 206.397 283.515C206.23 283.149 206.147 282.736 206.147 282.276C206.147 281.693 206.231 281.204 206.401 280.808C206.571 280.416 206.826 280.106 207.166 279.881C207.509 279.658 207.896 279.541 208.326 279.529ZM206.256 287.461H211.939V285.339H212.699V290.445H211.939V288.314H206.256V287.461Z" fill="#5DE6B3"/>
<path d="M240.589 279.529L240.659 280.333C240.337 280.372 240.072 280.459 239.864 280.597C239.659 280.738 239.492 280.955 239.363 281.248C239.237 281.541 239.174 281.87 239.174 282.236C239.174 282.562 239.222 282.849 239.319 283.098C239.416 283.347 239.547 283.531 239.714 283.651C239.884 283.774 240.069 283.836 240.268 283.836C240.47 283.836 240.646 283.777 240.795 283.66C240.948 283.543 241.075 283.35 241.178 283.08C241.245 282.907 241.349 282.525 241.49 281.933C241.633 281.341 241.768 280.927 241.894 280.689C242.055 280.382 242.254 280.152 242.492 280C242.732 279.85 243 279.775 243.296 279.775C243.621 279.775 243.924 279.868 244.206 280.052C244.49 280.237 244.705 280.506 244.852 280.861C244.998 281.215 245.071 281.609 245.071 282.043C245.071 282.521 244.994 282.941 244.838 283.304C244.686 283.67 244.461 283.952 244.162 284.148C243.863 284.344 243.524 284.45 243.147 284.464L243.085 283.647C243.492 283.603 243.8 283.454 244.008 283.199C244.216 282.947 244.32 282.573 244.32 282.078C244.32 281.562 244.225 281.186 244.034 280.949C243.847 280.714 243.62 280.597 243.353 280.597C243.122 280.597 242.931 280.681 242.782 280.848C242.632 281.012 242.479 281.439 242.32 282.131C242.165 282.825 242.029 283.301 241.912 283.559C241.739 283.934 241.519 284.211 241.253 284.39C240.989 284.568 240.684 284.658 240.338 284.658C239.996 284.658 239.672 284.56 239.367 284.363C239.065 284.167 238.83 283.884 238.66 283.515C238.493 283.149 238.409 282.736 238.409 282.276C238.409 281.693 238.494 281.204 238.664 280.808C238.834 280.416 239.089 280.106 239.429 279.881C239.772 279.658 240.158 279.541 240.589 279.529ZM238.519 285.84H244.961V290.498H244.201V286.692H242.228V290.256H241.472V286.692H239.279V290.647H238.519V285.84ZM238.519 291.825H244.961V294.255C244.961 294.683 244.941 295.01 244.9 295.235C244.847 295.552 244.746 295.817 244.597 296.031C244.45 296.245 244.244 296.416 243.977 296.545C243.711 296.677 243.418 296.743 243.098 296.743C242.55 296.743 242.086 296.568 241.705 296.22C241.327 295.871 241.138 295.241 241.138 294.33V292.678H238.519V291.825ZM241.898 292.678V294.343C241.898 294.894 242.001 295.285 242.206 295.517C242.411 295.748 242.7 295.864 243.072 295.864C243.341 295.864 243.571 295.795 243.762 295.657C243.955 295.522 244.083 295.344 244.144 295.121C244.182 294.978 244.201 294.712 244.201 294.326V292.678H241.898ZM238.519 299.467H244.201V297.345H244.961V302.451H244.201V300.32H238.519V299.467ZM238.519 303.348H244.961V308.006H244.201V304.2H242.228V307.764H241.472V304.2H239.279V308.155H238.519V303.348ZM238.519 309.307H244.961V310.59L240.4 312.115C239.975 312.255 239.657 312.358 239.446 312.422C239.681 312.496 240.025 312.61 240.479 312.765L244.961 314.308V315.455H238.519V314.633H243.911L238.519 312.761V311.992L244.003 310.128H238.519V309.307ZM228.519 279.784H234.961V282.201C234.961 282.693 234.896 283.087 234.764 283.383C234.635 283.682 234.434 283.915 234.162 284.082C233.892 284.252 233.609 284.337 233.314 284.337C233.038 284.337 232.779 284.262 232.536 284.113C232.293 283.963 232.096 283.738 231.947 283.436C231.833 283.826 231.638 284.125 231.362 284.333C231.087 284.543 230.762 284.649 230.387 284.649C230.085 284.649 229.804 284.584 229.543 284.456C229.285 284.33 229.086 284.173 228.945 283.985C228.805 283.798 228.698 283.562 228.625 283.278C228.554 282.997 228.519 282.651 228.519 282.241V279.784ZM232.254 280.637V282.03C232.254 282.408 232.279 282.679 232.329 282.843C232.394 283.06 232.501 283.222 232.65 283.331C232.799 283.442 232.987 283.498 233.212 283.498C233.426 283.498 233.614 283.446 233.775 283.344C233.939 283.241 234.05 283.095 234.109 282.904C234.17 282.714 234.201 282.387 234.201 281.924V280.637H232.254ZM229.279 280.637V282.241C229.279 282.516 229.29 282.709 229.31 282.821C229.345 283.017 229.404 283.181 229.486 283.313C229.568 283.445 229.687 283.553 229.842 283.638C230 283.723 230.182 283.766 230.387 283.766C230.627 283.766 230.835 283.704 231.011 283.581C231.19 283.458 231.314 283.287 231.384 283.067C231.458 282.85 231.494 282.537 231.494 282.126V280.637H229.279ZM228.519 285.84H234.961V290.498H234.201V286.692H232.228V290.256H231.472V286.692H229.279V290.647H228.519V285.84ZM228.519 291.838H234.961V294.695C234.961 295.269 234.903 295.706 234.786 296.004C234.671 296.303 234.468 296.542 234.175 296.721C233.882 296.899 233.558 296.989 233.204 296.989C232.747 296.989 232.361 296.841 232.048 296.545C231.734 296.249 231.535 295.792 231.45 295.174C231.342 295.399 231.235 295.571 231.129 295.688C230.901 295.937 230.615 296.173 230.273 296.396L228.519 297.516V296.444L229.859 295.591C230.246 295.342 230.542 295.137 230.747 294.976C230.952 294.815 231.096 294.67 231.178 294.541C231.26 294.415 231.317 294.286 231.349 294.154C231.37 294.058 231.38 293.899 231.38 293.68V292.691H228.519V291.838ZM232.118 292.691V294.523C232.118 294.913 232.158 295.218 232.237 295.438C232.319 295.657 232.448 295.824 232.624 295.938C232.802 296.053 232.996 296.11 233.204 296.11C233.508 296.11 233.759 295.999 233.955 295.776C234.151 295.556 234.25 295.208 234.25 294.73V292.691H232.118Z" fill="#5DE6B3"/>
<path d="M262.834 279.56C263.903 279.56 264.739 279.847 265.343 280.421C265.949 280.996 266.253 281.737 266.253 282.645C266.253 283.24 266.11 283.776 265.826 284.253C265.542 284.731 265.145 285.094 264.635 285.343C264.128 285.595 263.553 285.721 262.908 285.721C262.255 285.721 261.67 285.589 261.155 285.326C260.639 285.062 260.248 284.688 259.982 284.205C259.718 283.722 259.586 283.2 259.586 282.641C259.586 282.034 259.732 281.492 260.025 281.015C260.318 280.537 260.718 280.175 261.225 279.929C261.732 279.683 262.268 279.56 262.834 279.56ZM262.82 280.439C262.044 280.439 261.432 280.647 260.983 281.063C260.538 281.482 260.315 282.006 260.315 282.636C260.315 283.278 260.541 283.805 260.992 284.218C261.443 284.634 262.084 284.842 262.913 284.842C263.437 284.842 263.894 284.753 264.284 284.574C264.676 284.398 264.98 284.139 265.193 283.796C265.41 283.457 265.519 283.074 265.519 282.649C265.519 282.046 265.311 281.526 264.895 281.089C264.482 280.656 263.79 280.439 262.82 280.439ZM259.696 286.789H266.138V287.642H262.943L266.138 290.841V291.997L263.528 289.294L259.696 292.115V290.99L262.957 288.696L261.928 287.642H259.696V286.789ZM259.696 294.466H265.378V292.344H266.138V297.45H265.378V295.319H259.696V294.466ZM262.834 297.903C263.903 297.903 264.739 298.19 265.343 298.764C265.949 299.338 266.253 300.08 266.253 300.988C266.253 301.583 266.11 302.119 265.826 302.596C265.542 303.074 265.145 303.437 264.635 303.686C264.128 303.938 263.553 304.064 262.908 304.064C262.255 304.064 261.67 303.932 261.155 303.668C260.639 303.405 260.248 303.031 259.982 302.548C259.718 302.064 259.586 301.543 259.586 300.983C259.586 300.377 259.732 299.835 260.025 299.357C260.318 298.88 260.718 298.518 261.225 298.272C261.732 298.026 262.268 297.903 262.834 297.903ZM262.82 298.782C262.044 298.782 261.432 298.99 260.983 299.406C260.538 299.825 260.315 300.349 260.315 300.979C260.315 301.621 260.541 302.148 260.992 302.561C261.443 302.977 262.084 303.185 262.913 303.185C263.437 303.185 263.894 303.096 264.284 302.917C264.676 302.741 264.98 302.482 265.193 302.139C265.41 301.799 265.519 301.417 265.519 300.992C265.519 300.389 265.311 299.869 264.895 299.432C264.482 298.999 263.79 298.782 262.82 298.782ZM249.696 279.784H256.138V282.201C256.138 282.693 256.072 283.087 255.94 283.383C255.812 283.682 255.611 283.915 255.338 284.082C255.069 284.252 254.786 284.337 254.49 284.337C254.215 284.337 253.956 284.262 253.712 284.113C253.469 283.963 253.273 283.738 253.124 283.436C253.009 283.826 252.815 284.125 252.539 284.333C252.264 284.543 251.939 284.649 251.564 284.649C251.262 284.649 250.981 284.584 250.72 284.456C250.462 284.33 250.263 284.173 250.122 283.985C249.982 283.798 249.875 283.562 249.801 283.278C249.731 282.997 249.696 282.651 249.696 282.241V279.784ZM253.431 280.637V282.03C253.431 282.408 253.456 282.679 253.506 282.843C253.57 283.06 253.677 283.222 253.827 283.331C253.976 283.442 254.164 283.498 254.389 283.498C254.603 283.498 254.791 283.446 254.952 283.344C255.116 283.241 255.227 283.095 255.286 282.904C255.347 282.714 255.378 282.387 255.378 281.924V280.637H253.431ZM250.456 280.637V282.241C250.456 282.516 250.466 282.709 250.487 282.821C250.522 283.017 250.581 283.181 250.663 283.313C250.745 283.445 250.863 283.553 251.019 283.638C251.177 283.723 251.358 283.766 251.564 283.766C251.804 283.766 252.012 283.704 252.188 283.581C252.366 283.458 252.491 283.287 252.561 283.067C252.634 282.85 252.671 282.537 252.671 282.126V280.637H250.456ZM249.696 285.84H256.138V290.498H255.378V286.692H253.405V290.256H252.649V286.692H250.456V290.647H249.696V285.84ZM249.696 291.838H256.138V294.695C256.138 295.269 256.08 295.706 255.962 296.004C255.848 296.303 255.645 296.542 255.352 296.721C255.059 296.899 254.735 296.989 254.38 296.989C253.923 296.989 253.538 296.841 253.225 296.545C252.911 296.249 252.712 295.792 252.627 295.174C252.519 295.399 252.412 295.571 252.306 295.688C252.078 295.937 251.792 296.173 251.449 296.396L249.696 297.516V296.444L251.036 295.591C251.423 295.342 251.719 295.137 251.924 294.976C252.129 294.815 252.273 294.67 252.355 294.541C252.437 294.415 252.494 294.286 252.526 294.154C252.546 294.058 252.557 293.899 252.557 293.68V292.691H249.696V291.838ZM253.295 292.691V294.523C253.295 294.913 253.335 295.218 253.414 295.438C253.496 295.657 253.625 295.824 253.8 295.938C253.979 296.053 254.172 296.11 254.38 296.11C254.685 296.11 254.936 295.999 255.132 295.776C255.328 295.556 255.426 295.208 255.426 294.73V292.691H253.295Z" fill="#5DE6B3"/>
<path d="M87.0239 280.575H93.4663V284.922H92.706V281.428H90.7109V284.451H89.9507V281.428H87.0239V280.575ZM87.0239 286.051H93.4663V290.709H92.706V286.903H90.7329V290.467H89.977V286.903H87.7841V290.859H87.0239V286.051ZM87.0239 292.001H93.4663V294.418C93.4663 294.91 93.4004 295.304 93.2685 295.6C93.1396 295.899 92.9389 296.132 92.6665 296.299C92.3969 296.469 92.1142 296.554 91.8183 296.554C91.5429 296.554 91.2837 296.479 91.0405 296.33C90.7973 296.18 90.601 295.955 90.4516 295.653C90.3374 296.043 90.1425 296.341 89.8672 296.549C89.5918 296.76 89.2666 296.866 88.8916 296.866C88.5898 296.866 88.3086 296.801 88.0478 296.672C87.79 296.547 87.5908 296.39 87.4502 296.202C87.3095 296.015 87.2026 295.779 87.1294 295.495C87.0591 295.214 87.0239 294.868 87.0239 294.458V292.001ZM90.7592 292.854V294.247C90.7592 294.625 90.7841 294.896 90.834 295.06C90.8984 295.276 91.0053 295.439 91.1548 295.547C91.3042 295.659 91.4917 295.714 91.7173 295.714C91.9311 295.714 92.1186 295.663 92.2798 295.561C92.4438 295.458 92.5551 295.312 92.6137 295.121C92.6753 294.931 92.706 294.604 92.706 294.141V292.854H90.7592ZM87.7841 292.854V294.458C87.7841 294.733 87.7944 294.926 87.8149 295.038C87.8501 295.234 87.9087 295.398 87.9907 295.53C88.0727 295.662 88.1914 295.77 88.3466 295.855C88.5049 295.94 88.6865 295.983 88.8916 295.983C89.1318 295.983 89.3398 295.921 89.5156 295.798C89.6943 295.675 89.8188 295.504 89.8891 295.284C89.9624 295.067 89.999 294.754 89.999 294.343V292.854H87.7841ZM87.0239 298.052H93.4663V300.909C93.4663 301.483 93.4077 301.92 93.2905 302.218C93.1762 302.517 92.9726 302.756 92.6797 302.935C92.3867 303.113 92.063 303.203 91.7085 303.203C91.2514 303.203 90.8662 303.055 90.5527 302.759C90.2392 302.463 90.04 302.006 89.955 301.388C89.8466 301.613 89.7397 301.785 89.6342 301.902C89.4057 302.151 89.1201 302.387 88.7773 302.609L87.0239 303.73V302.658L88.3642 301.805C88.7509 301.556 89.0468 301.351 89.2519 301.19C89.457 301.029 89.6006 300.884 89.6826 300.755C89.7646 300.629 89.8217 300.5 89.854 300.368C89.8745 300.272 89.8847 300.113 89.8847 299.894V298.905H87.0239V298.052ZM90.623 298.905V300.737C90.623 301.127 90.6626 301.432 90.7417 301.651C90.8237 301.871 90.9526 302.038 91.1284 302.152C91.3071 302.267 91.5005 302.324 91.7085 302.324C92.0132 302.324 92.2636 302.213 92.4599 301.99C92.6562 301.77 92.7544 301.422 92.7544 300.944V298.905H90.623ZM93.4663 308.771V309.623H89.7441C89.0966 309.623 88.5825 309.55 88.2016 309.403C87.8208 309.257 87.5102 308.992 87.27 308.608C87.0327 308.227 86.914 307.726 86.914 307.105C86.914 306.502 87.018 306.008 87.226 305.624C87.4341 305.24 87.7343 304.966 88.1269 304.802C88.5224 304.638 89.0615 304.556 89.7441 304.556H93.4663V305.409H89.7485C89.1889 305.409 88.7758 305.46 88.5092 305.563C88.2456 305.668 88.042 305.847 87.8984 306.099C87.7549 306.354 87.6831 306.664 87.6831 307.03C87.6831 307.657 87.8252 308.104 88.1093 308.371C88.3935 308.637 88.9399 308.771 89.7485 308.771H93.4663ZM77.0239 279.824L83.4663 282.298V283.216L77.0239 285.853V284.882L78.9751 284.13V281.437L77.0239 280.729V279.824ZM79.6694 281.683V283.867L81.4536 283.194C81.9956 282.989 82.4409 282.837 82.7895 282.737C82.3764 282.655 81.9663 282.54 81.5591 282.39L79.6694 281.683ZM77.0239 286.547H83.4663V289.404C83.4663 289.978 83.4077 290.415 83.2905 290.714C83.1762 291.012 82.9726 291.251 82.6797 291.43C82.3867 291.609 82.063 291.698 81.7085 291.698C81.2514 291.698 80.8662 291.55 80.5527 291.254C80.2392 290.958 80.04 290.501 79.955 289.883C79.8466 290.109 79.7397 290.28 79.6342 290.397C79.4057 290.646 79.1201 290.882 78.7773 291.105L77.0239 292.225V291.153L78.3642 290.3C78.7509 290.051 79.0468 289.846 79.2519 289.685C79.457 289.524 79.6006 289.379 79.6826 289.25C79.7646 289.124 79.8217 288.995 79.854 288.863C79.8745 288.767 79.8847 288.609 79.8847 288.389V287.4H77.0239V286.547ZM80.623 287.4V289.233C80.623 289.622 80.6626 289.927 80.7417 290.147C80.8237 290.366 80.9526 290.533 81.1284 290.648C81.3071 290.762 81.5005 290.819 81.7085 290.819C82.0132 290.819 82.2636 290.708 82.4599 290.485C82.6562 290.265 82.7544 289.917 82.7544 289.439V287.4H80.623ZM77.0239 294.686H79.7529L83.4663 292.203V293.24L81.5239 294.51C81.1606 294.745 80.7973 294.963 80.4341 295.165C80.771 295.359 81.1504 295.593 81.5722 295.868L83.4663 297.116V298.109L79.7529 295.539H77.0239V294.686Z" fill="#5DE6B3"/>
</svg>
