<svg width="337" height="261" viewBox="0 0 337 261" fill="none" xmlns="http://www.w3.org/2000/svg">
<path fill-rule="evenodd" clip-rule="evenodd" d="M238.073 86.8947C248.722 86.8947 257.355 78.5469 257.355 68.2493C257.355 57.9517 248.722 49.6039 238.073 49.6039C227.424 49.6039 218.791 57.9517 218.791 68.2493C218.791 78.5469 227.424 86.8947 238.073 86.8947Z" fill="#F2F2F2"/>
<path fill-rule="evenodd" clip-rule="evenodd" d="M238.074 54.5291C238.677 54.5291 239.165 54.0566 239.165 53.4737C239.165 52.8909 238.677 52.4183 238.074 52.4183C237.471 52.4183 236.982 52.8909 236.982 53.4737C236.982 54.0566 237.471 54.5291 238.074 54.5291Z" fill="black" fill-opacity="0.1"/>
<path fill-rule="evenodd" clip-rule="evenodd" d="M222.793 69.3047C223.395 69.3047 223.884 68.8321 223.884 68.2492C223.884 67.6664 223.395 67.1938 222.793 67.1938C222.19 67.1938 221.701 67.6664 221.701 68.2492C221.701 68.8321 222.19 69.3047 222.793 69.3047Z" fill="black" fill-opacity="0.1"/>
<path fill-rule="evenodd" clip-rule="evenodd" d="M253.353 69.3047C253.956 69.3047 254.445 68.8321 254.445 68.2492C254.445 67.6664 253.956 67.1938 253.353 67.1938C252.75 67.1938 252.262 67.6664 252.262 68.2492C252.262 68.8321 252.75 69.3047 253.353 69.3047Z" fill="black" fill-opacity="0.1"/>
<path fill-rule="evenodd" clip-rule="evenodd" d="M238.074 84.0803C238.677 84.0803 239.165 83.6078 239.165 83.0249C239.165 82.442 238.677 81.9695 238.074 81.9695C237.471 81.9695 236.982 82.442 236.982 83.0249C236.982 83.6078 237.471 84.0803 238.074 84.0803Z" fill="black" fill-opacity="0.1"/>
<path fill-rule="evenodd" clip-rule="evenodd" d="M238.073 55.5845L238.801 67.8975H237.346L238.073 55.5845Z" fill="#AFB9C5"/>
<path fill-rule="evenodd" clip-rule="evenodd" d="M244.513 74.4757L237.824 69.0029L238.853 68.0079L244.513 74.4757Z" fill="#AFB9C5"/>
<path fill-rule="evenodd" clip-rule="evenodd" d="M238.074 69.6564C238.878 69.6564 239.53 69.0264 239.53 68.2492C239.53 67.4721 238.878 66.842 238.074 66.842C237.271 66.842 236.619 67.4721 236.619 68.2492C236.619 69.0264 237.271 69.6564 238.074 69.6564Z" fill="#C5CFD6"/>
<g opacity="0.345889">
<g clip-path="url(#clip0)">
<path fill-rule="evenodd" clip-rule="evenodd" d="M131.942 170.611C130.018 139.041 26.7808 78.1071 7.61506 108.01C-11.5506 137.912 6.8748 194.032 47.039 208.403C87.2032 222.774 133.867 202.181 131.942 170.611Z" fill="#F2F2F2"/>
<path fill-rule="evenodd" clip-rule="evenodd" d="M244.031 191.124C245.354 164.304 316.363 112.538 329.545 137.942C342.727 163.345 339.391 216.779 311.765 228.987C284.14 241.196 242.707 217.944 244.031 191.124Z" fill="#DDE3E9"/>
</g>
</g>
<g clip-path="url(#clip1)">
<path fill-rule="evenodd" clip-rule="evenodd" d="M61.6602 73.6735C85.1323 73.6735 104.16 63.5999 104.16 51.1735C104.16 38.7471 85.1323 28.6735 61.6602 28.6735C38.1881 28.6735 19.1602 38.7471 19.1602 51.1735C19.1602 63.5999 38.1881 73.6735 61.6602 73.6735Z" fill="#F2F2F2"/>
<path fill-rule="evenodd" clip-rule="evenodd" d="M111.16 66.6735C111.16 39.0592 88.9983 16.6735 61.6602 16.6735C34.3221 16.6735 12.1602 39.0592 12.1602 66.6735" fill="#DDE3E9"/>
<rect x="59.1602" width="5" height="24" fill="#DDE3E9"/>
</g>
<g opacity="0.7">
<g clip-path="url(#clip2)">
<path fill-rule="evenodd" clip-rule="evenodd" d="M89.9024 56C107.447 56 121.67 47.8704 121.67 37.8421C121.67 27.8138 107.447 19.6842 89.9024 19.6842C72.3576 19.6842 58.1348 27.8138 58.1348 37.8421C58.1348 47.8704 72.3576 56 89.9024 56Z" fill="#F2F2F2"/>
<path fill-rule="evenodd" clip-rule="evenodd" d="M126.902 50.3509C126.902 28.0657 110.337 10 89.9023 10C69.4678 10 52.9023 28.0657 52.9023 50.3509" fill="#DDE3E9"/>
<rect x="87.9023" width="5" height="33" fill="#DDE3E9"/>
</g>
</g>
<g clip-path="url(#clip3)">
<path d="M306.039 128.87V128.87C305.925 127.837 304.423 127.837 304.309 128.87L303.039 140.333V248.058" stroke="#CBCBCB" stroke-width="8"/>
<rect x="273.039" y="247.058" width="59" height="7" rx="3" fill="#AFB9C5"/>
<path d="M270.539 134.393C283.426 121.505 304.32 121.505 317.208 134.393C330.095 147.28 330.095 168.174 317.208 181.062L297.409 200.861L250.74 154.192L270.539 134.393Z" fill="#C5CFD6"/>
<path fill-rule="evenodd" clip-rule="evenodd" d="M270.267 181.585C283.154 194.472 295.659 202.862 298.198 200.323C300.736 197.785 292.347 185.28 279.46 172.393C266.572 159.505 254.067 151.116 251.529 153.654C248.99 156.193 257.38 168.698 270.267 181.585Z" fill="#F2F2F2"/>
</g>
<path fill-rule="evenodd" clip-rule="evenodd" d="M58.0793 170.332C59.1215 170.209 60.2338 170.253 61.203 170.65C63.2639 171.496 63.8497 173.851 63.8214 175.764C63.791 177.824 63.3387 180.073 64.958 181.733C65.7024 182.496 66.6284 183.08 67.3593 183.857C68.1403 184.687 68.7532 185.637 69.2069 186.657C70.0401 188.531 70.449 190.735 69.6871 192.7C69.0163 194.431 67.3286 195.993 67.6933 197.961C68.0737 200.014 70.2141 201.583 71.5523 203.112C73.0668 204.843 74.4612 207.054 74.6902 209.323C74.9099 211.498 73.9309 213.698 72.4285 215.342C69.4266 218.627 64.9144 220.237 60.3647 220.227C58.433 220.223 56.2459 220.138 54.5789 219.135C54.0637 218.824 53.7919 218.476 53.4856 217.992C53.211 217.558 52.8482 217.276 52.4284 216.969C51.5059 216.295 50.8397 215.386 50.4145 214.368C48.7636 210.417 50.0831 205.528 52.3941 202.019C52.9417 201.187 53.39 200.387 53.124 199.396C52.8464 198.362 52.1641 197.429 51.5606 196.54C50.9643 195.661 50.2835 194.823 49.8174 193.872C49.3292 192.877 49.1918 191.835 49.278 190.745C49.4401 188.699 50.3536 186.811 51.647 185.165C52.8927 183.58 54.3554 182.063 54.3586 179.986C54.3622 177.785 52.8403 175.827 53.4887 173.588C53.7571 172.662 54.2964 171.711 55.1654 171.155C55.9988 170.622 57.0992 170.448 58.0793 170.332Z" fill="#DDE3E9"/>
<path fill-rule="evenodd" clip-rule="evenodd" d="M57.3988 173.851C57.4184 173.556 57.7811 173.379 58.0666 173.456C58.4424 173.557 58.4351 173.897 58.4252 174.199C58.3948 175.129 58.534 176.033 58.7651 176.935C59.2456 178.811 60.1335 180.539 60.8369 182.341C61.5397 184.141 61.8696 186 61.4573 187.905C61.0687 189.701 60.458 191.451 60.0603 193.249C59.7096 194.835 59.3366 196.506 59.8705 198.087C60.3843 199.609 61.5202 200.848 62.3381 202.224C64.0313 205.071 64.7825 208.229 64.883 211.48C64.9295 212.989 64.8876 214.512 64.5255 215.992C64.3171 216.845 64.037 217.997 63.2816 218.585C62.9333 218.857 62.3376 218.951 62.0444 218.549C61.7692 218.172 62.0106 217.588 62.098 217.186C62.4764 215.447 62.5526 213.67 62.462 211.904C62.3743 210.194 62.1653 208.486 61.6086 206.852C61.0918 205.336 60.3068 203.975 59.383 202.648C58.4415 201.297 57.4628 199.943 57.0738 198.341C56.6786 196.715 56.9997 195.06 57.429 193.465C57.8831 191.777 58.4778 190.138 59.0926 188.496C59.6918 186.897 59.9041 185.383 59.5734 183.709C58.92 180.401 57.171 177.296 57.3988 173.851Z" fill="#C5CFD6"/>
<path fill-rule="evenodd" clip-rule="evenodd" d="M85.5954 174.346C86.885 174.725 88.1659 175.336 89.0852 176.294C91.0401 178.331 90.4403 181.41 89.3611 183.658C88.1996 186.079 86.4394 188.512 87.4316 191.289C87.8877 192.566 88.6546 193.722 89.0872 195.009C89.5495 196.383 89.749 197.815 89.7236 199.25C89.6765 201.885 88.9516 204.697 86.9836 206.638C85.2508 208.347 82.4175 209.346 81.7695 211.856C81.0935 214.475 82.7462 217.408 83.4799 219.89C84.3104 222.698 84.7369 226.015 83.7652 228.814C82.8341 231.496 80.4836 233.605 77.8228 234.794C72.5063 237.168 66.3336 236.803 61.0027 234.502C58.7394 233.526 56.2203 232.326 54.8138 230.3C54.3791 229.674 54.2505 229.125 54.1558 228.399C54.0709 227.748 53.7997 227.232 53.475 226.657C52.7616 225.396 52.4771 223.986 52.5345 222.569C52.7582 217.065 56.9781 211.947 61.6068 208.959C62.7035 208.252 63.6667 207.531 63.8963 206.225C64.1362 204.862 63.8459 203.416 63.6241 202.06C63.4051 200.721 63.0648 199.387 63.0375 198.029C63.0091 196.606 63.4176 195.304 64.1142 194.06C65.4229 191.721 67.5265 189.947 69.943 188.652C72.2706 187.404 74.8152 186.346 75.9544 183.891C77.1619 181.29 76.4472 178.208 78.4311 175.888C79.2525 174.927 80.4048 174.073 81.7277 173.853C82.9965 173.642 84.3824 173.99 85.5954 174.346Z" fill="#DDE3E9"/>
<path fill-rule="evenodd" clip-rule="evenodd" d="M82.9614 178.648C83.1444 178.308 83.6645 178.282 83.9566 178.518C84.341 178.828 84.1486 179.227 83.9732 179.58C83.434 180.666 83.1073 181.806 82.889 182.992C82.4348 185.457 82.537 187.954 82.3836 190.444C82.2303 192.932 81.6093 195.301 80.0954 197.348C78.6681 199.278 77.0065 201.04 75.5673 202.969C74.2988 204.668 72.9572 206.458 72.7252 208.601C72.5017 210.664 73.1587 212.707 73.3702 214.751C73.8081 218.98 72.9758 223.102 71.3328 227.002C70.5698 228.813 69.6958 230.595 68.4706 232.165C67.7653 233.069 66.8139 234.291 65.6119 234.605C65.0576 234.75 64.3102 234.559 64.185 233.934C64.0673 233.348 64.6657 232.78 64.9855 232.348C66.3699 230.481 67.4215 228.414 68.272 226.277C69.0959 224.207 69.7764 222.079 70.0102 219.862C70.2271 217.805 70.0467 215.795 69.6847 213.756C69.3158 211.678 68.905 209.578 69.3174 207.485C69.7361 205.359 71.0079 203.561 72.374 201.89C73.8188 200.122 75.402 198.482 77.0101 196.849C78.5771 195.259 79.6452 193.574 80.1653 191.423C81.1928 187.175 80.8293 182.612 82.9614 178.648Z" fill="#C5CFD6"/>
<path fill-rule="evenodd" clip-rule="evenodd" d="M45.7276 189.972C47.8721 189.972 49.7574 191.071 51.0565 192.631C52.5772 194.457 52.8843 196.687 53.5018 198.863C53.8091 199.946 54.3376 201.021 55.2637 201.757C56.1061 202.426 57.1755 202.56 58.1838 202.887C60.1988 203.54 61.826 205.114 62.4686 207.034C63.2525 209.377 62.4222 211.739 62.5652 214.113C62.6964 216.293 64.9195 217.654 66.7081 218.699C68.4717 219.729 70.0606 220.694 70.5917 222.702C71.155 224.831 71.344 227.208 70.5638 229.312C69.2649 232.814 65.4633 234.356 61.7901 234.595C58.4565 234.812 54.2649 234.472 51.7614 232.132C50.2633 230.732 49.7208 228.773 49.7881 226.825C49.8299 225.614 50.0781 224.413 50.399 223.242C50.6265 222.413 50.9337 221.586 51.0213 220.729C51.254 218.448 49.0735 218.01 47.2175 217.383C44.859 216.587 43.2078 215.084 42.0597 212.989C40.9904 211.038 40.5418 208.849 41.1828 206.702C41.5101 205.605 42.1039 204.61 42.9092 203.764C43.2637 203.392 43.7633 203.081 44.0832 202.69C44.3819 202.325 44.3169 201.851 44.2139 201.423C43.7381 199.446 42.2554 197.809 41.7251 195.836C41.2464 194.055 41.5294 191.838 43.2135 190.689C43.9411 190.193 44.8383 189.978 45.7276 189.972Z" fill="#C5CFD6"/>
<path fill-rule="evenodd" clip-rule="evenodd" d="M48.6498 195.123C50.9227 197.464 51.5405 200.64 51.7218 203.719C51.8234 205.446 51.7177 207.266 52.2422 208.941C52.691 210.374 53.7431 211.47 54.8276 212.505C57.0107 214.59 59.4454 216.709 60.0839 219.725C60.4586 221.496 60.2057 223.324 60.7234 225.075C61.1941 226.666 62.0229 228.23 63.031 229.574C63.8427 230.656 64.9002 231.484 65.7875 232.493C66.0582 232.801 66.446 233.255 66.3342 233.689C66.2035 234.198 65.5328 234.36 65.057 234.28C63.9476 234.093 63.0138 233.069 62.2884 232.324C61.2277 231.235 60.3264 230.064 59.5938 228.75C58.7805 227.291 58.1256 225.743 57.8458 224.106C57.5555 222.408 57.7 220.638 57.037 219.008C55.9213 216.266 53.2151 214.647 51.2586 212.51C48.8209 209.847 49.1844 206.532 49.4341 203.256C49.5713 201.455 49.7076 199.422 48.7668 197.778C48.4077 197.151 47.6069 196.566 47.4525 195.853C47.3111 195.199 48.083 194.539 48.6498 195.123Z" fill="#AFB9C5"/>
<path fill-rule="evenodd" clip-rule="evenodd" d="M51.0724 233.595C51.0724 246.984 53.332 254 65.2611 254C77.1902 254 79.4498 246.984 79.4498 233.595H51.0724Z" fill="#89C5CC"/>
<rect x="100.188" y="214.246" width="13.825" height="3.1662" rx="1.5831" fill="#AFB9C5"/>
<path fill-rule="evenodd" clip-rule="evenodd" d="M106.45 188.565H107.463V188.565H108.112C108.301 193.989 109.176 199.149 110.738 204.044H107.1V204.044H103.825C106.168 196.701 106.45 188.565 106.45 188.565ZM100.91 204.044C97.8984 204.044 95.457 206.486 95.457 209.497C95.457 212.509 97.8984 214.95 100.91 214.95H113.288C116.3 214.95 118.741 212.509 118.741 209.497C118.741 206.486 116.3 204.044 113.288 204.044H100.91Z" fill="#DDE3E9"/>
<path fill-rule="evenodd" clip-rule="evenodd" d="M94.2285 164.178C94.2285 164.178 100.482 163.587 106.736 163.587C112.989 163.587 119.243 164.178 119.243 164.178L120.924 192.13C120.924 192.13 113.83 192.787 106.736 192.787C99.6413 192.787 92.5469 192.13 92.5469 192.13L94.2285 164.178Z" fill="#C5CFD6"/>
<path fill-rule="evenodd" clip-rule="evenodd" d="M84.1797 254V225.152V217.413H91.8198H129.657V225.152H129.656V254H122.015V225.152H91.8198V254H84.1797Z" fill="#F2F2F2"/>
<path fill-rule="evenodd" clip-rule="evenodd" d="M236.392 154.865C239.606 162.249 245.069 167.38 247.962 175.058C249.678 179.611 250.393 184.561 250.436 189.632C250.46 192.386 250.41 195.141 250.397 197.895C250.384 200.581 250.309 203.25 250.073 205.918C249.836 208.601 249.571 211.251 249.454 213.951C249.363 216.054 249.321 218.5 248.584 220.418C247.998 221.944 246.507 222.168 246.112 220.317C245.892 219.289 245.92 218.14 245.944 217.083C245.975 215.727 246.057 214.373 246.099 213.016C246.266 207.575 246.049 202.132 246.162 196.689C246.273 191.37 246.98 186.057 246.198 180.774C245.552 176.411 243.911 172.664 242.025 169.073C240.21 165.617 238.235 162.246 237.009 158.315C236.657 157.186 236.385 156.017 236.254 154.803C236.311 154.777 236.357 154.798 236.392 154.865Z" fill="#C1DEE2"/>
<path fill-rule="evenodd" clip-rule="evenodd" d="M235.516 169.433C236.153 169.877 236.508 170.527 236.938 171.169C237.473 171.966 238.102 172.686 238.637 173.484C239.752 175.147 240.731 176.913 241.748 178.644C243.677 181.929 245.143 185.431 245.868 189.232C246.62 193.171 246.823 197.236 247.139 201.234C247.473 205.471 247.81 209.739 247.855 213.993C247.874 215.898 247.981 217.921 247.744 219.814C247.597 220.992 247.047 221.996 245.808 221.986C243.175 221.966 241.939 219.146 241.423 216.834C240.663 213.428 240.511 209.811 240.631 206.329C240.777 202.13 241.53 197.994 241.856 193.811C242.202 189.383 242.007 185.033 240.432 180.864C239.637 178.757 238.714 176.7 237.885 174.607C237.532 173.716 237.243 172.801 236.766 171.971C236.236 171.048 235.577 170.21 235.162 169.216C235.28 169.289 235.398 169.361 235.516 169.433Z" fill="#89C5CC"/>
<path fill-rule="evenodd" clip-rule="evenodd" d="M265.844 160.603C265.924 160.542 266.005 160.482 266.086 160.421C265.853 161.368 265.433 162.138 265.112 163.004C264.824 163.782 264.677 164.663 264.483 165.514C264.027 167.513 263.499 169.466 263.068 171.482C262.215 175.47 262.376 179.767 262.936 184.192C263.464 188.371 264.3 192.545 264.699 196.724C265.029 200.19 265.171 203.763 264.856 207.07C264.642 209.316 263.94 211.997 262.029 211.77C261.129 211.664 260.659 210.616 260.47 209.434C260.166 207.535 260.103 205.538 259.984 203.649C259.72 199.434 259.667 195.232 259.615 191.06C259.566 187.124 259.43 183.11 259.702 179.273C259.964 175.571 260.784 172.234 261.958 169.156C262.575 167.534 263.164 165.875 263.858 164.329C264.191 163.588 264.598 162.932 264.931 162.192C265.199 161.596 265.412 160.984 265.844 160.603Z" fill="#C1DEE2"/>
<path fill-rule="evenodd" clip-rule="evenodd" d="M236.33 181.635C236.678 181.07 237.444 182.934 237.561 183.168C237.512 183.052 237.462 182.935 237.412 182.819C238.103 183.93 238.735 185.087 239.128 186.361C239.517 187.622 239.851 188.909 240.216 190.179C240.901 192.562 241.785 194.877 242.405 197.282C243.009 199.625 243.162 201.929 243.016 204.352C242.863 206.871 242.77 209.429 242.948 211.946C243.033 213.149 243.437 214.269 243.714 215.427C243.991 216.585 244.209 217.76 244.537 218.904C244.612 218.755 244.622 219.253 244.622 219.291C244.62 219.577 244.578 219.817 244.483 220.088C244.239 220.785 243.781 221.377 243.086 221.569C241.828 221.917 240.661 220.811 240.255 219.643C239.673 217.967 239.353 216.115 239.075 214.353C238.821 212.738 238.761 211.113 238.837 209.476C238.985 206.247 239.59 203.06 239.753 199.832C239.931 196.317 239.211 193.015 238.608 189.594C238.318 187.946 238.04 186.313 237.475 184.742C237.246 184.106 236.948 183.545 236.635 182.958C236.457 182.624 236.097 182.028 236.33 181.635Z" fill="#C1DEE2"/>
<path fill-rule="evenodd" clip-rule="evenodd" d="M246.533 176.145C246.388 180.172 246.14 184.167 245.585 188.151C245.018 192.217 244.367 196.268 243.822 200.337C243.291 204.298 242.735 208.325 242.809 212.341C242.864 215.3 242.357 220.304 245.755 221.764C249.196 223.243 249.934 216.928 250.16 214.844C250.593 210.846 250.453 206.805 250.243 202.784C250.027 198.658 249.667 194.553 249.22 190.441C248.724 185.875 248.335 181.287 248.023 176.708C247.869 174.443 247.831 172.181 247.873 169.915C247.914 167.777 247.83 165.617 247.044 163.587C247.002 163.616 246.961 163.645 246.92 163.674" fill="#69A1AC"/>
<path fill-rule="evenodd" clip-rule="evenodd" d="M264.296 188.901C263.677 189.773 263.054 190.636 262.469 191.56C261.423 193.212 260.478 195.049 260.193 197.412C259.598 202.356 260.076 207.696 260.191 212.791C260.214 213.832 260.078 214.842 260.503 215.833C260.887 216.732 261.607 217.416 262.293 217.413C263.761 217.405 263.537 213.928 263.539 212.398C263.544 209.716 263.233 207.007 263.259 204.328C263.286 201.673 263.453 199.011 263.851 196.49C264.254 193.939 264.844 191.488 265.623 189.202C265.731 188.884 266.507 186.432 265.774 186.855" fill="#89C5CC"/>
<path fill-rule="evenodd" clip-rule="evenodd" d="M257.814 162.532C256.849 162.532 256.855 167.185 256.825 167.782C256.721 169.939 256.745 172.096 256.679 174.254C256.534 178.961 256.355 183.71 255.624 188.363C255.23 190.868 254.774 193.362 254.283 195.848C253.791 198.341 253.13 200.831 252.806 203.356C252.495 205.783 252.67 208.258 252.713 210.697C252.756 213.151 252.832 215.609 253.165 218.042C253.247 218.642 253.343 219.24 253.446 219.837C253.532 220.334 253.482 220.951 253.627 221.424C253.859 222.18 254.856 222.428 255.528 222.31C257.344 221.989 258.504 219.784 259.125 218.172C259.917 216.115 260.337 213.883 260.752 211.715C261.222 209.258 261.498 206.764 261.627 204.264C261.89 199.181 261.553 194.092 261.176 189.026C260.967 186.208 260.725 183.403 260.355 180.603C259.986 177.814 259.513 175.039 259.205 172.242C258.981 170.21 258.761 168.175 258.616 166.135C258.581 165.648 258.552 162.532 257.814 162.532Z" fill="#69A1AC"/>
<path fill-rule="evenodd" clip-rule="evenodd" d="M256.606 196.353C256.449 191.468 254.418 170.011 253.956 164.103C253.841 162.625 252.728 156.468 252.584 154.792C252.193 155.266 252.226 162.641 252.23 164.335C252.235 166.011 252.02 167.66 251.909 169.327C251.797 171.028 249.196 192.998 248.858 194.633C248.187 197.884 247.737 201.221 247.391 204.546C247.053 207.787 246.528 211.206 246.98 214.464C247.084 215.214 247.248 215.952 247.516 216.641C247.805 217.385 248.003 218.074 248.235 218.852C248.609 220.107 249.284 221.208 250.322 221.726C252.45 222.788 253.593 220.384 254.172 218.291C255.097 214.948 255.691 211.551 255.969 208.04C256.277 204.156 256.732 200.264 256.606 196.353Z" fill="#89C5CC"/>
<rect x="234.07" y="210.729" width="33.1072" height="32.0138" rx="2" fill="white"/>
<rect x="230.434" y="214.246" width="3.63815" height="39.7534" rx="1.81908" fill="#C5CFD6"/>
<rect x="248.625" y="214.247" width="3.63815" height="39.7534" rx="1.81908" fill="#C5CFD6"/>
<rect x="267.178" y="214.247" width="3.63815" height="39.7534" rx="1.81908" fill="#C5CFD6"/>
<path fill-rule="evenodd" clip-rule="evenodd" d="M96.0742 92.1752C98.8835 94.0517 101.644 94.9583 102.939 94.5882C106.188 93.6601 106.487 80.488 103.973 75.2951C101.459 70.1023 88.5355 67.8389 87.8841 78.1276C87.658 81.6985 89.011 84.8854 91.0101 87.4857L87.4258 106H97.8375L96.0742 92.1752Z" fill="#B28B67"/>
<path fill-rule="evenodd" clip-rule="evenodd" d="M103.293 73.2815C103.201 72.6541 103.382 72.3461 101.106 70.5784C98.8291 68.8107 95.1536 66.7259 91.4517 67.6332C86.6475 68.8107 84.7393 72.3227 82.8867 74.03C81.2166 75.5692 79.541 75.7487 78.5479 77.6586C77.5548 79.5684 77.0265 85.0631 77.89 87.2476C79.0812 90.2609 81.4302 91.0725 83.145 91.9406C86.0858 93.4296 90.2426 91.8571 90.3433 91.5966C91.1222 89.5816 95.315 83.8975 97.8369 81.5094C99.6913 79.7533 103.721 76.2265 103.293 73.2815Z" fill="#5C63AB"/>
<mask id="mask0" mask-type="alpha" maskUnits="userSpaceOnUse" x="77" y="67" width="27" height="26">
<path fill-rule="evenodd" clip-rule="evenodd" d="M103.293 73.2815C103.201 72.6541 103.382 72.3461 101.106 70.5784C98.8291 68.8107 95.1536 66.7259 91.4517 67.6332C86.6475 68.8107 84.7393 72.3227 82.8867 74.03C81.2166 75.5692 79.541 75.7487 78.5479 77.6586C77.5548 79.5684 77.0265 85.0631 77.89 87.2476C79.0812 90.2609 81.4302 91.0725 83.145 91.9406C86.0858 93.4296 90.2426 91.8571 90.3433 91.5966C91.1222 89.5816 95.315 83.8975 97.8369 81.5094C99.6913 79.7533 103.721 76.2265 103.293 73.2815Z" fill="white"/>
</mask>
<g mask="url(#mask0)">
<path fill-rule="evenodd" clip-rule="evenodd" d="M89.0025 87.838C84.0237 81.0334 82.8523 72.8269 82.8523 72.8269L81.3526 73.8781C81.3526 73.8781 83.1971 82.8461 89.0025 87.838ZM90.8968 91.5769C82.8397 83.7313 80.9182 74.9145 80.9182 74.9145L79.1836 75.4812C79.1836 75.4812 81.574 85.3405 90.8968 91.5769Z" fill="black" fill-opacity="0.2"/>
</g>
<path fill-rule="evenodd" clip-rule="evenodd" d="M80.4668 146L96.7735 205.196L104.673 255.538H110.867L102.52 146H80.4668Z" fill="#997659"/>
<path fill-rule="evenodd" clip-rule="evenodd" d="M74.6338 146C75.7414 178.502 74.4379 195.267 74.19 198.219C73.9421 201.172 70.5477 220.319 62.5117 256.529L69.1115 254.012C81.8116 220.802 86.1393 203.543 87.5959 199.182C89.0525 194.821 92.9212 177.094 99.2019 146H74.6338Z" fill="#B28B67"/>
<path fill-rule="evenodd" clip-rule="evenodd" d="M65.0417 253.992C63.8826 253.568 62.5159 254.046 62.1909 255.237C61.9942 255.958 61.834 256.699 61.834 257.202C61.834 258.503 62.2245 261 62.2245 261C63.5843 261 86.6653 261 86.6653 261C86.6653 261 87.618 257.503 85.5654 257.224C83.5128 256.945 82.1552 256.72 82.1552 256.72L71.3829 251.388C70.8511 251.125 70.2084 251.38 70.0018 251.936L69.488 253.32C69.488 253.32 67.5879 254.304 66.3999 254.304C66.023 254.304 65.5339 254.172 65.0417 253.992Z" fill="#E4E4E4"/>
<path fill-rule="evenodd" clip-rule="evenodd" d="M105.774 253.992C104.615 253.568 103.248 254.046 102.923 255.237C102.727 255.958 102.566 256.699 102.566 257.202C102.566 258.503 102.957 261 102.957 261C104.317 261 127.398 261 127.398 261C127.398 261 128.35 257.503 126.298 257.224C124.245 256.945 122.888 256.72 122.888 256.72L112.115 251.388C111.584 251.125 110.941 251.38 110.734 251.936L110.22 253.32C110.22 253.32 108.32 254.304 107.132 254.304C106.755 254.304 106.266 254.172 105.774 253.992Z" fill="#E4E4E4"/>
<path fill-rule="evenodd" clip-rule="evenodd" d="M78.3008 146L85.2341 176.16H106.411L103.254 146H78.3008Z" fill="#69A1AC"/>
<path fill-rule="evenodd" clip-rule="evenodd" d="M74.4013 146C70.9793 157.39 73.1013 176.16 73.1013 176.16H94.7117L100.654 146H74.4013Z" fill="#89C5CC"/>
<path fill-rule="evenodd" clip-rule="evenodd" d="M140.321 98.5519L123.345 101.416L126.532 109.702L140.243 103.449C146.205 103.978 149.08 103.769 148.869 102.821C148.691 102.021 148.054 101.791 147.468 101.578C147.011 101.413 146.585 101.259 146.43 100.855C146.075 99.9329 147.979 97.9716 149.858 96.1955C151.736 94.4195 150.451 94.1237 149.647 94.1646C146.8 94.9525 143.691 96.4149 140.321 98.5519ZM130.174 146.096L117.877 132.865L113.796 140.656L126.581 148.972C129.788 154.542 131.671 156.949 132.231 156.193C132.702 155.555 132.486 154.856 132.287 154.212C132.131 153.71 131.986 153.242 132.185 152.862C132.639 151.995 135.206 152.492 137.623 153.079C140.041 153.666 139.481 152.356 138.967 151.672C136.682 149.638 133.751 147.779 130.174 146.096Z" fill="#B28B67"/>
<path fill-rule="evenodd" clip-rule="evenodd" d="M100.386 99.6613C105.898 116.172 115.196 129.616 129.29 144.279L122.427 150.727C105.864 140.853 97.1917 135.1 94.5079 119.893C93.8343 116.076 94.5161 104.349 94.6112 98.1373L100.386 99.6613Z" fill="#2026A2"/>
<path fill-rule="evenodd" clip-rule="evenodd" d="M73.0117 147.567L106.103 152.705C106.103 152.705 99.6698 113.142 101.219 99.0098C101.272 98.5295 100.577 97.5609 100.208 97.6163C96.1607 98.2244 91.9917 95.4159 91.9917 95.4159C82.3768 108.112 77.4847 124.823 73.0117 147.567Z" fill="#F2F2F2"/>
<path fill-rule="evenodd" clip-rule="evenodd" d="M97.5917 117.934C99.6498 143.186 96.8655 163.164 85.4554 161.392L67.8113 158.652C67.651 137.447 78.6793 109.793 87.3548 96.328C87.6861 95.8138 88.3743 94.8543 89.6818 95.0573L94.8087 95.8534C94.81 95.8612 94.8113 95.8691 94.8126 95.8769C96.3536 96.1304 98.0446 96.4564 99.8759 96.8095C109.304 98.627 122.45 101.161 137.981 98.207L138.505 108.135C123.881 115.567 109.36 120.828 97.5917 117.934Z" fill="#1F28CF"/>
<circle cx="228.5" cy="136.5" r="83.5" fill="#09DF8F" fill-opacity="0.98"/>
<path d="M254.333 122.5L222.249 154.583L207.666 140" stroke="#F6F6F6" stroke-width="8" stroke-linecap="round" stroke-linejoin="round"/>
<defs>
<clipPath id="clip0">
</clipPath>
<clipPath id="clip1">
</clipPath>
<clipPath id="clip2">
</clipPath>
<clipPath id="clip3">
</clipPath>
</defs>
</svg>
