<svg width="19" height="33" viewBox="0 0 19 33" fill="none" xmlns="http://www.w3.org/2000/svg">
<path d="M18.2037 17.7028L4.53872 32.1914C4.38206 32.3575 4.19608 32.4893 3.99138 32.5792C3.78668 32.6691 3.56729 32.7154 3.34572 32.7154C3.12416 32.7154 2.90476 32.6691 2.70006 32.5792C2.49537 32.4893 2.30938 32.3575 2.15272 32.1914L0.557722 30.5013C0.241892 30.166 0.0645 29.7114 0.0645 29.2375C0.0645 28.7636 0.241892 28.309 0.557722 27.9736L11.3847 16.4379L0.555722 4.9011C0.239892 4.56574 0.0625 4.11119 0.0625 3.63726C0.0625 3.16334 0.239892 2.70878 0.555722 2.37342L2.15172 0.684409C2.30838 0.51828 2.49437 0.386497 2.69906 0.296587C2.90376 0.206677 3.12316 0.1604 3.34472 0.1604C3.56629 0.1604 3.78568 0.206677 3.99038 0.296587C4.19508 0.386497 4.38106 0.51828 4.53772 0.684409L18.2027 15.173C18.519 15.5084 18.6968 15.9633 18.697 16.4377C18.6972 16.912 18.5198 17.3671 18.2037 17.7028Z" fill="#76819B"/>
</svg>
